<?xml version="1.0" standalone="no"?>
<!DOCTYPE svg PUBLIC "-//W3C//DTD SVG 20010904//EN"
 "http://www.w3.org/TR/2001/REC-SVG-20010904/DTD/svg10.dtd">
<svg version="1.0" xmlns="http://www.w3.org/2000/svg"
 width="1280.000000pt" height="761.000000pt" viewBox="0 0 1280.000000 761.000000"
 preserveAspectRatio="xMidYMid meet">
<metadata>
Created by potrace 1.15, written by Peter Selinger 2001-2017
</metadata>
<g transform="translate(0.000000,761.000000) scale(0.100000,-0.100000)"
fill="#000000" stroke="none">
<path d="M5468 6888 c-7 -7 -24 -13 -38 -13 -18 0 -25 -5 -23 -18 1 -17 -1
-17 -21 2 -29 27 -31 27 -46 -9 -14 -35 -14 -35 -45 -14 -13 8 -34 15 -47 13
-13 -1 -36 1 -52 6 -22 6 -31 4 -38 -9 -5 -9 -15 -16 -23 -16 -8 0 -21 -10
-29 -22 -8 -11 -27 -22 -42 -24 -15 -2 -39 -14 -53 -28 -15 -15 -32 -26 -38
-26 -6 0 -16 -7 -23 -15 -10 -12 -10 -18 0 -30 7 -9 9 -22 5 -32 -5 -10 -9
-25 -9 -33 -1 -9 -9 -14 -23 -13 -12 2 -54 -13 -93 -33 -57 -29 -70 -40 -70
-59 0 -13 8 -30 18 -37 10 -7 21 -21 25 -30 5 -14 1 -18 -16 -18 -30 0 -52
-34 -32 -50 7 -6 13 -19 12 -28 0 -9 7 -29 16 -43 17 -25 63 -40 119 -40 10 0
23 -10 29 -22 7 -12 18 -26 25 -30 7 -4 13 -23 12 -42 -1 -19 4 -40 11 -48 16
-20 6 -165 -14 -187 -10 -11 -15 -37 -15 -73 0 -49 4 -59 31 -86 32 -32 38
-79 9 -73 -8 2 -19 -3 -25 -10 -6 -7 -19 -18 -30 -24 -19 -11 -32 -50 -38
-119 -2 -16 7 -52 19 -80 13 -27 25 -77 28 -110 6 -66 23 -125 37 -125 5 0 9
-7 9 -15 0 -14 5 -17 40 -19 8 -1 15 -6 15 -13 0 -15 49 -53 68 -53 8 0 18 11
21 25 4 14 15 34 26 45 12 12 19 31 18 48 -3 48 106 182 149 182 12 0 27 9 33
20 6 11 20 20 31 20 13 0 23 10 30 28 7 20 27 37 73 60 35 18 73 32 85 32 23
0 91 39 129 74 41 37 53 70 46 131 -6 46 -11 57 -32 68 -14 6 -29 24 -33 40
-4 15 -4 25 1 22 4 -3 14 2 21 11 12 14 14 14 25 -1 29 -39 102 3 77 44 -10
16 -9 18 8 14 28 -8 25 28 -6 57 -29 27 -19 49 14 29 17 -12 23 -11 37 3 16
16 11 43 -7 33 -5 -4 -9 1 -9 9 0 9 7 16 15 16 18 0 18 1 5 34 -7 20 -6 27 8
35 16 9 15 12 -4 53 -14 30 -18 52 -13 73 4 17 7 26 8 20 4 -25 31 33 31 66 0
21 5 41 11 45 6 3 8 17 4 33 -6 25 -6 25 9 6 14 -17 17 -18 26 -5 6 8 8 24 5
35 -3 16 3 24 24 32 32 11 38 32 33 95 -5 45 -27 56 -57 28 -20 -18 -82 -29
-72 -12 3 4 1 17 -4 30 -9 24 -33 29 -46 10 -12 -20 -37 -15 -44 7 -4 18 1 21
50 25 48 4 56 8 59 27 2 12 -6 31 -17 42 -10 10 -21 30 -23 43 l-3 23 -187 3
c-140 2 -189 -1 -200 -10z m354 -20 c-7 -7 -12 -22 -12 -35 0 -20 4 -22 31
-16 27 5 31 3 27 -13 -3 -16 -11 -19 -48 -17 -25 1 -63 5 -85 8 -51 8 -86 -14
-69 -42 8 -13 24 -18 55 -18 36 0 43 -3 41 -18 -4 -24 23 -32 64 -19 42 13 44
0 4 -28 -16 -12 -30 -26 -30 -31 0 -16 77 -11 84 6 3 9 19 15 41 15 22 0 38 6
41 15 9 23 21 18 27 -12 8 -39 -15 -71 -48 -68 -19 3 -28 -2 -35 -19 -5 -13
-16 -26 -24 -29 -13 -5 -14 -10 -5 -25 7 -12 9 -27 4 -38 -5 -11 -9 -29 -9
-42 -1 -12 -14 -33 -30 -47 -25 -21 -28 -29 -21 -61 3 -20 14 -48 22 -61 14
-21 14 -26 2 -34 -8 -5 -20 -9 -28 -9 -13 0 -13 -13 5 -82 6 -26 4 -28 -25
-28 -26 0 -31 -4 -31 -22 0 -13 7 -32 15 -42 13 -17 13 -21 -1 -31 -14 -10
-14 -15 -3 -33 11 -17 11 -24 1 -34 -9 -9 -17 -7 -35 10 -27 25 -43 28 -50 8
-4 -9 -14 -12 -26 -9 -27 7 -27 -17 -1 -74 13 -30 25 -43 40 -43 17 0 20 -6
20 -42 -1 -42 -1 -42 -18 -23 -26 30 -73 65 -88 65 -22 0 -16 -24 12 -51 l26
-24 -24 -5 c-12 -3 -24 -13 -26 -23 -3 -13 6 -18 38 -23 22 -4 43 -10 46 -15
8 -13 -75 -68 -120 -80 -82 -22 -155 -62 -173 -96 -10 -18 -25 -33 -35 -33 -9
0 -21 -7 -26 -15 -4 -9 -19 -17 -33 -20 -47 -8 -165 -159 -155 -198 3 -13 -4
-31 -19 -48 -12 -16 -25 -34 -28 -41 -4 -9 -12 -5 -26 12 -12 14 -26 31 -32
38 -6 7 -17 11 -24 8 -8 -3 -21 6 -29 20 -17 24 -21 44 -32 144 -4 30 -15 70
-25 88 -23 40 -24 75 -3 106 10 16 12 26 5 31 -18 10 -12 25 9 25 11 0 23 7
27 16 3 8 11 13 18 10 22 -8 34 9 36 51 2 34 -2 45 -27 67 -28 25 -17 37 16
17 23 -15 30 -3 14 27 -7 15 -17 42 -20 60 -7 35 -13 38 -34 20 -9 -8 -8 -5 1
7 31 39 47 196 22 216 -8 7 -13 26 -12 44 3 25 -5 40 -38 74 -30 32 -46 41
-61 37 -11 -4 -24 0 -32 9 -9 11 -16 12 -26 4 -16 -13 -37 21 -28 45 4 10 0
18 -10 22 -22 9 -20 24 3 24 11 0 23 5 26 10 4 6 15 8 26 5 10 -4 23 -4 28 0
18 10 -1 35 -26 35 -16 0 -27 7 -30 19 -3 11 -13 21 -24 24 -24 6 -25 26 -1
34 9 4 34 17 54 30 21 13 53 23 73 23 25 0 37 5 41 18 3 9 12 30 20 47 13 25
13 31 1 40 -11 8 -8 14 19 32 27 18 34 19 38 6 8 -19 27 -6 24 15 -2 12 5 18
25 20 19 2 31 11 37 28 9 24 30 34 30 14 0 -5 7 -10 16 -10 11 0 15 6 12 18
-5 16 1 19 39 18 40 -1 43 -3 39 -22 -4 -13 0 -27 8 -34 12 -9 17 -7 26 10 8
15 17 19 31 15 11 -4 19 -2 19 5 0 6 6 18 14 25 12 12 17 9 37 -17 54 -71 58
-74 68 -58 7 10 6 22 -4 36 -12 19 -12 21 3 20 13 -1 17 6 15 27 -2 29 23 39
33 12 9 -21 44 -19 44 3 0 14 7 17 38 14 29 -2 212 11 232 17 2 0 -1 -4 -8
-11z m-67 -98 c4 -6 -7 -10 -25 -10 -18 0 -29 4 -25 10 3 6 15 10 25 10 10 0
22 -4 25 -10z m-755 -915 c0 -8 -4 -15 -10 -15 -5 0 -10 7 -10 15 0 8 5 15 10
15 6 0 10 -7 10 -15z m710 -115 c0 -13 -11 -13 -30 0 -12 8 -11 10 8 10 12 0
22 -4 22 -10z"/>
<path d="M8476 6578 c1 -39 5 -73 8 -76 8 -8 -76 -67 -91 -64 -7 1 -28 -4 -48
-12 -24 -10 -35 -21 -35 -36 0 -11 -8 -24 -17 -27 -64 -25 -99 -125 -56 -160
12 -9 11 -14 -9 -27 -12 -9 -29 -16 -38 -16 -14 0 -40 -41 -40 -64 0 -6 17
-27 37 -48 45 -46 40 -59 -8 -18 -37 31 -63 38 -76 18 -4 -7 -17 -13 -28 -13
-15 0 -21 -9 -27 -45 -4 -25 -3 -58 2 -75 38 -120 52 -158 70 -187 28 -46 25
-78 -10 -118 l-30 -35 16 32 c18 38 14 77 -16 138 -12 25 -23 51 -24 58 -1 8
-9 26 -19 40 -9 15 -17 37 -17 51 0 14 -4 28 -10 31 -5 3 -10 22 -10 41 0 58
-74 110 -85 60 -2 -12 -6 -39 -9 -61 -2 -22 -7 -57 -11 -77 -5 -31 -3 -38 15
-48 14 -7 20 -18 17 -29 -2 -10 4 -29 14 -42 10 -13 19 -29 19 -36 0 -23 -22
-25 -37 -3 -8 12 -20 19 -27 17 -6 -3 -20 1 -30 9 -10 7 -38 16 -63 20 -28 4
-47 13 -54 25 -13 24 -35 24 -48 0 -13 -22 11 -47 49 -53 20 -2 26 -10 28 -33
2 -21 0 -26 -6 -16 -8 11 -18 11 -58 -4 -27 -10 -55 -25 -61 -34 -11 -13 -13
-12 -13 7 0 31 -24 38 -49 13 -12 -12 -28 -21 -36 -21 -9 0 -20 -11 -25 -25
-14 -37 -48 -46 -90 -24 -38 21 -80 25 -80 9 0 -6 9 -28 20 -50 25 -49 25 -55
-1 -57 -27 -2 -89 -71 -89 -100 0 -27 -7 -28 -34 -8 -26 19 -34 19 -39 -2 -3
-13 -6 -9 -12 12 -4 17 -14 41 -22 54 l-15 24 55 -6 c64 -8 79 3 81 60 1 34
-3 39 -39 58 -22 11 -53 30 -69 43 -16 12 -41 22 -57 22 -18 0 -35 9 -49 27
-17 22 -30 28 -61 28 -39 0 -36 3 15 20 19 6 19 6 0 25 -10 10 -36 22 -57 26
-34 6 -39 4 -44 -15 -4 -16 -9 -19 -18 -11 -16 13 -62 3 -69 -15 -3 -8 -13
-11 -25 -8 -15 4 -21 1 -21 -10 0 -8 -16 -24 -35 -36 -19 -11 -35 -25 -35 -31
0 -5 -18 -26 -39 -46 -22 -19 -41 -45 -43 -57 -2 -12 -13 -26 -25 -32 -17 -7
-25 -24 -34 -72 -8 -39 -18 -63 -26 -63 -7 0 -13 -9 -13 -19 0 -26 -50 -101
-67 -101 -17 0 -46 -27 -62 -58 -10 -18 -9 -23 4 -28 13 -5 15 -17 10 -65 -6
-54 -4 -61 19 -84 30 -30 70 -26 98 9 15 18 18 18 18 4 0 -9 8 -24 17 -33 10
-10 17 -37 19 -68 2 -29 3 -55 4 -59 2 -28 86 -11 97 19 3 10 14 30 24 44 10
15 21 45 24 68 2 22 10 50 17 61 10 16 10 25 -4 47 -31 53 -9 149 47 210 11
12 28 33 38 47 17 24 57 36 57 18 0 -5 -13 -27 -29 -49 -41 -56 -55 -165 -28
-207 16 -24 87 -43 109 -30 7 4 8 2 4 -4 -4 -7 -14 -12 -21 -12 -25 0 -38 -38
-25 -70 16 -38 5 -53 -30 -45 -27 6 -30 4 -41 -37 -7 -24 -18 -50 -26 -59 -7
-8 -13 -22 -13 -31 0 -11 -12 -15 -42 -15 -24 0 -47 -2 -53 -3 -5 -1 -36 -2
-67 -1 -70 1 -95 20 -74 54 16 24 8 102 -9 102 -16 0 -60 -38 -68 -59 -5 -12
-2 -25 9 -37 9 -10 13 -22 10 -28 -4 -5 -2 -12 4 -16 25 -16 7 -41 -45 -64
-30 -13 -56 -27 -56 -32 -1 -5 -2 -15 -3 -21 0 -7 -7 -13 -14 -13 -8 0 -19 -7
-25 -16 -14 -18 -42 -30 -51 -22 -3 4 1 14 10 24 18 20 13 49 -9 49 -7 0 -21
15 -30 33 -9 17 -32 52 -51 77 -28 37 -32 49 -24 70 7 20 5 28 -10 41 -11 9
-20 24 -19 35 2 19 -7 21 -93 12 -29 -3 -41 -44 -16 -54 8 -3 12 -12 9 -20 -3
-8 0 -21 7 -29 6 -8 9 -19 5 -25 -7 -12 36 -57 70 -75 31 -16 32 -45 1 -45
-19 0 -26 -5 -26 -20 0 -11 -6 -20 -14 -20 -19 0 -28 -28 -16 -51 8 -13 7 -19
0 -19 -6 0 -10 -12 -8 -27 2 -22 8 -27 23 -25 11 2 34 6 50 8 21 4 26 3 16 -4
-8 -6 -11 -17 -8 -26 5 -13 -1 -16 -29 -16 -33 0 -35 -2 -32 -27 2 -18 12 -32
30 -41 20 -9 29 -24 38 -63 8 -32 9 -54 3 -60 -5 -5 -51 -10 -101 -10 -67 -1
-95 -5 -104 -16 -15 -19 -19 -201 -4 -228 14 -26 28 -36 44 -30 6 2 12 -2 12
-10 0 -8 6 -15 14 -15 22 0 30 -38 13 -63 -8 -12 -35 -43 -60 -68 -29 -31 -47
-59 -51 -84 -5 -25 -23 -53 -57 -88 -27 -27 -49 -52 -49 -53 0 -10 -67 -113
-92 -142 -37 -43 -44 -75 -25 -115 20 -42 24 -106 8 -136 -15 -28 -21 -80 -9
-87 4 -3 8 -15 8 -28 0 -12 12 -34 28 -48 44 -41 71 -76 78 -103 3 -14 10 -25
15 -25 4 0 37 -29 72 -64 77 -77 113 -89 172 -57 28 15 42 17 51 10 8 -7 31
-8 61 -3 26 5 52 7 56 6 4 -1 19 8 32 21 19 17 34 22 63 19 32 -3 42 -10 57
-38 17 -32 21 -34 71 -34 64 0 72 -15 48 -86 -20 -57 -20 -100 1 -121 8 -8 15
-20 15 -27 0 -7 21 -35 46 -61 36 -37 47 -55 48 -84 1 -20 8 -49 15 -65 14
-36 10 -63 -32 -189 l-32 -98 47 -87 c39 -73 47 -96 46 -137 -1 -39 6 -62 30
-102 17 -29 30 -53 27 -53 -2 0 8 -28 22 -62 14 -35 25 -80 24 -100 -2 -39 4
-46 59 -65 59 -21 126 -15 196 19 12 5 30 8 41 6 21 -3 53 17 53 35 0 5 25 33
55 62 47 45 55 59 55 90 0 29 7 43 38 70 20 19 40 35 43 35 18 0 39 74 39 139
0 77 8 91 94 156 22 17 47 48 57 73 19 43 19 57 3 142 -4 19 -9 79 -11 133
l-4 97 38 53 c20 28 69 86 108 127 88 95 122 138 162 209 32 57 47 118 37 145
-5 14 -8 14 -27 1 -38 -27 -181 -12 -193 20 -3 7 -14 15 -25 18 -13 4 -19 14
-19 35 0 22 -6 32 -20 37 -11 4 -39 34 -61 68 -23 34 -47 66 -55 70 -8 4 -14
13 -14 18 0 6 -6 25 -14 42 -8 18 -19 49 -26 69 -6 21 -16 40 -20 43 -5 3 -17
23 -26 43 -8 20 -22 52 -30 70 -17 39 -18 52 -4 52 6 0 10 -7 10 -15 0 -8 4
-15 8 -15 13 0 115 -161 127 -200 4 -14 26 -52 49 -85 22 -33 51 -82 64 -110
13 -27 40 -67 60 -87 43 -45 81 -49 139 -16 21 12 54 29 73 39 19 10 50 29 69
43 19 14 41 26 48 26 8 0 42 28 75 61 73 73 76 94 27 161 -38 52 -83 75 -164
82 -27 3 -53 5 -57 5 -5 1 -8 8 -8 16 0 7 -6 18 -13 22 -7 4 -18 20 -25 36 -6
15 -25 35 -42 46 -29 17 -29 19 -10 24 14 4 29 -4 49 -24 16 -16 37 -29 45
-29 9 0 16 -4 16 -10 0 -5 5 -10 10 -10 6 0 23 -11 38 -25 32 -30 37 -31 58
-6 16 18 17 18 35 0 11 -11 19 -23 19 -29 0 -9 15 -11 113 -15 15 -1 32 -6 38
-12 8 -8 20 -8 37 -2 13 5 40 7 58 3 40 -7 128 -84 151 -131 15 -33 52 -47 54
-20 1 20 18 -26 18 -51 1 -13 10 -42 22 -65 11 -23 30 -67 41 -97 11 -30 33
-71 49 -91 15 -20 31 -48 34 -62 9 -35 30 -50 57 -44 27 7 42 39 58 126 9 47
21 76 45 106 19 22 38 53 44 68 6 15 17 27 25 27 20 0 105 85 117 117 9 24 11
25 28 9 30 -27 58 -19 52 17 0 4 2 7 6 6 16 -1 108 -155 109 -180 2 -46 12
-59 43 -59 16 0 33 5 36 10 8 14 25 13 25 -2 0 -6 10 -34 23 -62 25 -56 28
-111 8 -169 -16 -46 -9 -67 21 -67 23 0 37 -22 69 -110 7 -19 17 -41 22 -47 6
-9 6 -13 -1 -13 -6 0 -28 22 -50 48 -39 46 -43 48 -92 49 -51 1 -51 0 -45 -26
3 -14 18 -35 32 -46 79 -60 112 -99 119 -142 3 -24 10 -43 15 -43 5 0 9 -7 9
-15 0 -8 10 -17 23 -20 15 -4 27 -18 33 -37 9 -33 54 -66 90 -67 33 -1 52 28
48 74 -1 22 -3 46 -3 53 -1 7 -9 16 -18 19 -33 12 -73 47 -73 63 0 9 -12 27
-26 39 -33 29 -26 35 18 16 56 -23 59 5 8 78 -22 32 -40 69 -40 83 0 13 -4 24
-9 24 -5 0 -28 25 -51 55 l-42 54 23 47 22 47 27 -31 c15 -18 34 -32 43 -32
10 0 25 -18 37 -46 26 -56 52 -56 83 1 12 21 33 49 46 60 23 20 23 23 11 80
-9 42 -22 69 -42 88 -34 34 -60 92 -56 126 3 23 63 69 75 57 3 -3 -2 -24 -12
-48 -16 -41 -16 -43 4 -59 12 -10 30 -14 46 -12 23 5 25 9 25 64 0 45 3 57 14
53 7 -3 25 9 39 25 14 17 35 31 46 31 19 0 47 19 92 61 9 10 24 42 33 73 9 31
22 56 29 56 12 0 37 64 37 94 0 7 -7 19 -15 26 -8 7 -12 17 -9 22 3 5 -2 19
-13 30 -18 20 -18 21 4 14 38 -12 38 15 1 48 -20 17 -48 53 -62 81 l-27 50 43
37 c24 20 40 39 37 42 -3 4 -32 8 -65 10 -32 2 -67 7 -76 11 -27 11 -21 39 13
64 l30 22 -7 -35 c-7 -42 0 -45 35 -12 15 13 45 26 69 30 44 7 48 3 42 -47 -1
-11 7 -21 20 -24 16 -4 20 -11 16 -25 -3 -14 1 -22 15 -25 13 -4 19 -14 19
-33 0 -15 8 -38 19 -51 l18 -22 47 38 c25 22 46 43 46 49 0 11 -59 109 -71
116 -30 20 -24 93 11 135 8 10 15 30 15 44 0 20 6 27 25 29 35 5 55 25 85 89
47 99 66 282 38 358 -20 53 -28 106 -14 85 6 -8 11 -25 11 -38 0 -12 6 -25 14
-28 13 -5 33 -104 29 -144 -2 -23 24 -65 57 -94 60 -50 79 -23 35 49 -30 49
-31 58 -5 50 28 -9 26 14 -5 59 -14 20 -25 43 -25 51 0 8 -4 17 -10 20 -5 3
-10 17 -10 30 0 12 -11 33 -25 46 -15 14 -25 35 -25 52 0 15 -7 30 -15 33 -8
4 -15 15 -15 26 0 26 -23 18 -30 -10 -5 -21 -7 -20 -49 13 -49 39 -63 42 -81
20 -14 -17 -20 -18 -37 -7 -8 5 -6 33 7 107 11 55 19 116 20 136 0 43 31 75
67 71 13 -2 29 1 36 6 7 5 28 13 47 17 66 13 71 16 65 36 -4 11 -2 19 5 19 7
0 14 -8 17 -18 4 -18 7 -18 51 -4 76 24 97 36 100 60 3 17 -2 22 -20 22 -22 0
-23 3 -23 72 0 60 3 73 17 76 9 2 22 -6 28 -18 7 -14 17 -19 27 -15 9 3 20 0
24 -6 10 -17 29 -1 29 24 0 38 15 51 28 23 8 -18 7 -28 -4 -45 -8 -11 -17 -49
-20 -83 -4 -35 -15 -90 -26 -123 -14 -42 -18 -72 -13 -105 9 -67 24 -117 38
-132 24 -25 47 -68 47 -86 0 -11 6 -25 13 -31 8 -6 19 -28 26 -48 6 -21 22
-51 36 -68 36 -43 50 -23 51 73 1 43 6 87 11 97 6 11 8 25 6 32 -2 6 5 14 16
18 25 8 27 32 5 64 -12 16 -15 35 -11 64 6 45 -4 72 -39 102 -13 11 -34 42
-48 68 l-25 48 22 42 c19 36 24 41 34 28 10 -14 13 -12 23 9 9 21 18 25 48 26
66 0 75 8 67 62 -5 41 -3 52 21 87 18 27 29 57 32 92 4 47 6 51 23 40 14 -8
21 -9 30 0 16 16 -9 51 -48 68 -22 9 -33 21 -33 35 0 11 -7 23 -15 26 -10 4
-12 10 -7 18 5 6 12 31 16 56 l7 46 52 -6 c29 -3 71 -16 94 -28 75 -39 92 -26
47 34 -24 31 -26 40 -22 99 4 40 2 62 -4 59 -5 -3 -18 2 -30 12 -13 12 -36 19
-68 20 -32 0 -54 7 -66 19 -10 10 -37 27 -59 37 -22 10 -52 28 -66 39 -17 14
-44 21 -85 24 -32 1 -90 10 -129 18 -60 13 -78 14 -127 2 -66 -15 -78 -21 -78
-41 0 -8 -10 -14 -25 -14 -22 0 -25 -4 -23 -27 2 -21 -2 -28 -17 -31 -51 -8
-67 -14 -85 -32 -19 -19 -23 -19 -55 -6 -19 8 -35 20 -35 25 0 6 -6 11 -14 11
-7 0 -30 14 -51 30 -45 36 -49 36 -80 6 -29 -29 -80 -38 -114 -20 -14 8 -34
11 -43 8 -13 -4 -21 2 -28 20 -9 24 -22 32 -45 26 -65 -16 -73 -16 -90 -4 -15
11 -22 11 -46 -1 -15 -8 -48 -15 -74 -15 -42 0 -58 -11 -35 -25 6 -3 10 -14
10 -23 0 -10 9 -25 20 -35 33 -28 23 -48 -32 -66 -21 -7 -40 -16 -43 -21 -3
-5 -15 0 -25 10 -11 11 -27 20 -35 20 -17 0 -20 -25 -5 -35 24 -15 7 -22 -32
-13 -43 9 -88 47 -88 74 0 21 -46 36 -118 39 -68 3 -86 -10 -65 -44 10 -16 1
-17 -108 -15 -65 1 -124 6 -131 11 -15 12 -58 11 -75 0 -15 -9 -17 -44 -4 -49
5 -1 1 -14 -10 -27 -15 -18 -19 -20 -19 -7 0 25 20 108 31 129 18 33 -2 98
-42 140 -21 23 -42 36 -49 32 -6 -4 -20 1 -31 11 -18 17 -20 16 -42 -4 -18
-17 -29 -20 -52 -13 -25 6 -29 12 -27 33 4 29 -6 37 -53 48 l-33 7 4 -69z m59
0 c0 -13 9 -27 21 -33 12 -6 30 -17 39 -25 15 -12 19 -12 31 4 7 10 15 24 17
30 3 8 11 7 26 -1 11 -7 27 -13 35 -13 16 0 80 -60 72 -67 -2 -3 0 -18 6 -34
7 -20 7 -33 0 -42 -5 -6 -17 -50 -26 -96 -8 -47 -19 -87 -23 -90 -11 -8 -63
-79 -63 -85 0 -3 7 -6 15 -6 20 0 93 76 110 116 8 17 21 36 29 43 12 10 13 18
4 35 -10 20 -10 20 8 4 12 -10 30 -15 49 -12 98 14 128 15 153 6 16 -5 35 -6
42 -2 6 4 27 3 46 -3 43 -13 53 -3 32 33 l-16 28 40 6 c55 9 103 -22 128 -81
5 -13 18 -23 28 -23 10 0 22 -4 27 -9 6 -5 27 -12 47 -15 31 -6 37 -4 43 14 4
11 15 20 26 20 11 0 31 8 45 17 25 16 26 16 49 -13 l24 -29 1 46 c0 25 5 50
10 55 13 13 -9 64 -27 64 -7 0 -13 7 -13 15 0 10 10 15 29 15 17 0 33 5 36 10
9 15 45 12 39 -3 -5 -14 30 -57 47 -57 6 0 9 12 7 28 -3 25 0 27 33 30 29 2
37 -1 45 -19 10 -23 16 -24 124 -33 48 -3 58 -1 81 21 l26 24 38 -25 c21 -14
41 -26 46 -26 4 0 19 -11 33 -25 16 -16 36 -25 57 -25 21 0 40 8 55 25 16 17
34 25 58 25 19 0 38 4 41 10 4 6 17 4 35 -5 40 -20 57 -19 63 6 4 14 -2 28
-19 44 -13 12 -24 26 -24 31 0 11 88 40 110 37 8 -1 35 -5 60 -9 25 -3 49 -10
54 -15 6 -5 23 -9 39 -9 17 0 48 -9 71 -19 23 -10 60 -24 84 -31 30 -8 57 -26
89 -61 26 -27 55 -49 65 -49 20 0 23 11 7 27 -20 20 30 22 56 2 21 -18 24 -25
19 -63 -4 -29 -1 -52 10 -74 22 -43 21 -44 -25 -17 -29 16 -52 22 -74 18 -28
-4 -36 0 -64 36 -33 41 -56 52 -64 29 -5 -15 13 -58 23 -58 16 0 26 -46 15
-77 -9 -26 -13 -30 -28 -21 -10 5 -25 7 -33 4 -25 -10 -15 -32 22 -45 24 -9
40 -24 51 -46 10 -21 28 -38 45 -44 15 -6 28 -12 28 -15 0 -3 -7 -3 -15 0 -17
7 -23 -5 -29 -65 -3 -24 -15 -58 -28 -75 -17 -24 -23 -44 -23 -88 0 -54 -1
-57 -25 -60 -14 -2 -33 1 -43 7 -14 8 -20 6 -28 -7 -5 -9 -17 -14 -27 -11 -15
3 -25 -8 -46 -52 -17 -37 -24 -65 -20 -79 13 -41 54 -111 76 -127 16 -13 22
-29 24 -73 2 -30 11 -67 20 -81 16 -24 15 -25 -4 -25 -22 0 -33 -43 -38 -145
-4 -111 -2 -103 -24 -75 -11 14 -20 29 -20 34 0 9 -18 52 -58 136 -9 19 -22
42 -29 51 -20 24 -45 129 -38 161 4 15 6 30 6 33 0 2 7 22 16 42 8 21 17 63
19 93 2 30 9 67 15 82 14 35 4 94 -24 135 -23 35 -55 46 -42 16 14 -35 17 -53
11 -76 -7 -29 -45 -33 -63 -7 -17 24 -36 25 -58 4 -11 -12 -15 -32 -14 -78 2
-33 -1 -71 -5 -83 -6 -20 -4 -23 20 -23 36 0 21 -15 -28 -28 -23 -6 -38 -7
-38 -1 0 13 -107 11 -115 -1 -4 -6 -2 -17 4 -24 9 -11 4 -15 -26 -20 -21 -4
-59 -14 -86 -22 -58 -19 -71 -45 -80 -159 -3 -44 -13 -101 -20 -126 -13 -42
-13 -48 2 -61 9 -8 21 -24 28 -34 10 -15 14 -16 21 -6 7 11 11 10 16 -4 6 -16
8 -16 16 -4 5 8 7 23 4 33 -7 21 5 22 35 1 18 -13 20 -18 10 -25 -11 -7 -8
-14 14 -30 15 -11 27 -26 27 -34 0 -7 11 -46 24 -86 20 -63 23 -86 17 -154 -4
-44 -13 -91 -20 -105 -8 -13 -16 -38 -18 -54 -6 -56 -37 -100 -87 -124 -35
-16 -46 -27 -42 -38 3 -9 0 -28 -8 -42 -43 -83 -45 -95 -25 -135 11 -20 23
-37 27 -37 5 0 18 -21 31 -47 l22 -46 -30 -31 c-17 -16 -34 -26 -38 -22 -4 4
-7 27 -6 52 1 24 -3 46 -8 50 -6 4 -6 11 2 20 14 17 -10 29 -41 21 -12 -3 -18
-1 -14 5 3 5 -2 25 -12 44 -20 36 -23 37 -113 18 -21 -4 -23 -2 -19 20 6 31
-14 35 -34 7 -8 -11 -26 -25 -40 -31 -49 -23 -65 -91 -23 -98 11 -2 28 -11 38
-20 12 -11 21 -12 28 -5 6 6 19 9 29 6 16 -4 15 -7 -6 -30 -13 -14 -24 -32
-24 -40 0 -17 27 -70 51 -102 23 -29 24 -39 3 -37 -29 2 -26 -22 5 -40 17 -10
27 -23 24 -31 -3 -8 4 -25 16 -37 21 -23 22 -25 6 -57 -8 -19 -26 -52 -40 -74
-14 -22 -25 -50 -25 -62 0 -25 -77 -93 -106 -93 -10 0 -29 -11 -41 -24 -26
-27 -74 -40 -85 -23 -12 20 -122 -43 -126 -71 -4 -30 44 -129 75 -156 32 -28
46 -132 19 -142 -9 -4 -26 -24 -37 -45 -11 -22 -22 -39 -25 -39 -3 0 -12 16
-20 35 -9 22 -21 35 -32 35 -10 0 -33 15 -51 34 -50 52 -66 52 -87 0 -20 -49
-35 -49 -27 0 3 21 -1 45 -10 63 -8 15 -21 42 -27 60 -14 38 -43 50 -76 32
-30 -16 -36 -9 -39 41 -2 28 -12 52 -37 82 -19 24 -44 59 -56 78 -27 45 -61
68 -73 49 -4 -8 -4 -18 1 -23 6 -6 10 -17 10 -25 0 -11 -6 -9 -23 7 -33 31
-45 27 -57 -19 -6 -22 -19 -43 -28 -46 -9 -4 -27 -20 -40 -35 -13 -15 -30 -28
-38 -28 -7 0 -23 -17 -34 -37 -28 -53 -41 -72 -67 -99 -13 -13 -23 -31 -24
-41 -3 -79 -25 -153 -45 -153 -8 0 -22 16 -30 36 -8 19 -28 54 -44 76 -16 22
-33 57 -36 77 -4 20 -13 45 -20 56 -15 23 -54 165 -54 195 0 29 -28 25 -36 -5
-3 -14 -9 -25 -13 -25 -12 0 -31 23 -32 39 0 9 -20 32 -44 51 -24 20 -46 47
-50 63 -7 28 -15 33 -30 18 -13 -12 -97 -17 -113 -7 -7 4 -40 8 -73 9 -56 2
-64 5 -88 35 -32 37 -46 40 -61 11 -10 -18 -13 -19 -28 -6 -9 8 -42 29 -74 46
-37 21 -58 40 -62 56 -7 28 -31 33 -40 9 -4 -11 -13 -14 -31 -10 -14 4 -25 4
-25 2 0 -2 -3 -11 -6 -20 -4 -10 8 -23 36 -41 37 -24 75 -80 68 -102 -2 -5 1
-9 6 -10 5 -1 12 -7 16 -14 5 -7 25 -12 47 -11 21 1 61 -3 89 -8 46 -10 54
-16 88 -66 20 -31 36 -60 34 -64 -6 -18 -111 -120 -123 -120 -7 0 -28 -11 -47
-23 -19 -13 -63 -39 -99 -58 -35 -19 -65 -37 -67 -41 -5 -11 -27 -10 -56 3
-27 13 -89 99 -99 139 -4 14 -24 48 -44 75 -21 28 -53 82 -72 120 -19 39 -44
81 -56 95 -12 14 -37 49 -55 78 -35 55 -40 58 -70 42 -24 -13 -21 -21 54 -182
20 -42 36 -82 36 -87 0 -6 9 -28 20 -48 11 -21 20 -42 20 -48 0 -6 9 -16 19
-22 11 -7 34 -37 52 -67 18 -30 43 -59 56 -65 16 -7 23 -19 23 -38 1 -22 11
-34 48 -58 42 -27 55 -30 129 -30 73 0 83 -2 83 -18 0 -22 -45 -111 -79 -157
-48 -64 -56 -73 -150 -174 -123 -133 -125 -138 -118 -256 3 -52 9 -106 12
-120 28 -120 16 -153 -84 -237 -38 -32 -71 -63 -74 -69 -3 -6 -1 -33 4 -60 14
-73 3 -102 -56 -157 -42 -38 -54 -57 -59 -89 -9 -56 -21 -74 -66 -103 -22 -14
-40 -31 -40 -39 0 -20 -22 -35 -61 -40 -19 -2 -51 -11 -71 -20 -44 -19 -83
-20 -129 -4 -43 14 -50 25 -43 64 3 18 1 35 -4 38 -6 3 -21 37 -33 74 -12 37
-33 87 -46 111 -14 28 -23 61 -23 90 0 35 -10 64 -40 119 -45 82 -49 117 -20
180 10 23 17 42 15 42 -1 0 3 21 11 47 18 59 18 103 -1 139 -8 16 -12 38 -9
49 5 20 -33 79 -70 109 -7 6 -24 30 -36 53 -20 37 -22 47 -13 80 33 115 25
146 -39 143 -60 -4 -66 -1 -79 35 -13 34 -14 35 -69 35 -30 0 -64 -6 -75 -13
-35 -23 -106 -40 -118 -28 -17 17 -49 13 -82 -9 -16 -11 -37 -20 -46 -20 -21
0 -109 69 -109 85 0 7 -16 22 -35 34 -19 11 -35 28 -35 38 0 10 -20 41 -44 69
-25 28 -53 70 -62 94 -16 39 -16 44 -1 69 18 31 18 118 -1 164 -18 44 -15 57
27 107 22 26 46 62 54 81 8 19 37 57 64 85 30 31 59 75 73 109 15 37 39 72 67
98 24 22 43 45 43 52 0 10 15 12 59 8 55 -5 61 -4 85 22 22 23 33 27 78 27 29
0 67 6 85 14 24 11 38 12 59 4 19 -8 37 -8 58 0 26 9 33 8 44 -7 7 -10 10 -24
6 -33 -9 -22 -12 -60 -5 -60 3 0 14 -14 23 -30 12 -20 25 -30 41 -30 13 0 41
-13 62 -30 21 -17 44 -30 52 -30 8 0 27 -8 41 -18 43 -30 79 -14 96 42 7 20
22 19 101 -4 80 -23 156 -30 198 -19 30 8 42 8 45 0 5 -16 46 -13 80 6 31 18
53 66 51 113 -1 14 2 35 6 46 8 27 -15 37 -51 24 -33 -13 -81 -13 -89 0 -3 6
-19 10 -34 10 -70 0 -90 10 -102 52 -5 22 -12 45 -15 52 -6 17 71 57 84 44 16
-16 42 -2 42 21 0 14 9 23 28 27 15 4 34 13 44 21 9 8 42 16 75 18 51 3 61 0
86 -23 22 -21 31 -24 45 -16 9 6 18 21 18 33 1 12 4 24 7 28 14 13 -15 43 -41
43 -18 0 -39 11 -57 30 -16 17 -35 30 -42 30 -17 0 -17 15 2 34 30 29 9 100
-22 75 -7 -7 -13 -17 -13 -23 0 -6 -15 -18 -33 -27 -17 -9 -31 -23 -29 -30 5
-18 -20 -60 -32 -56 -6 2 -11 16 -11 32 0 37 -27 54 -50 32 -9 -9 -24 -17 -33
-17 -9 0 -28 -12 -43 -26 -27 -25 -27 -29 -14 -59 10 -25 10 -36 2 -44 -9 -9
-8 -17 1 -32 14 -22 8 -39 -13 -39 -8 0 -17 -11 -21 -25 l-6 -25 -21 28 c-11
15 -23 29 -25 32 -2 3 -12 -5 -22 -17 -10 -13 -25 -23 -34 -23 -10 0 -16 -9
-16 -23 0 -34 -9 -38 -32 -15 -15 15 -17 22 -8 33 13 16 5 35 -15 35 -7 0 -15
12 -17 27 -2 17 -10 29 -21 31 -21 4 -107 85 -107 101 0 17 -46 34 -73 27 -32
-8 -40 -40 -16 -62 10 -9 19 -22 19 -29 0 -14 77 -95 90 -95 6 0 10 -9 10 -19
0 -11 5 -23 10 -26 6 -3 10 -13 10 -21 0 -8 -28 15 -63 51 -35 36 -66 65 -69
65 -9 0 -68 60 -68 69 0 4 -12 14 -26 21 -23 13 -27 12 -42 -8 -14 -18 -29
-23 -81 -26 -63 -4 -81 -14 -81 -46 0 -8 -23 -34 -50 -58 -38 -33 -50 -50 -50
-72 0 -44 -10 -60 -36 -60 -14 0 -35 -6 -47 -14 -46 -29 -61 -28 -85 8 -15 23
-29 32 -41 29 -19 -5 -46 40 -35 59 8 12 8 98 0 118 -13 33 9 42 108 44 57 1
101 7 108 14 25 25 1 147 -32 157 -10 3 -24 13 -31 22 -12 14 -10 15 18 9 26
-6 34 -4 43 14 7 14 17 19 27 16 27 -11 50 3 77 44 14 22 32 40 40 40 8 0 16
7 20 15 3 8 14 15 24 15 13 0 21 9 25 28 6 27 48 52 90 52 9 0 19 11 23 25 5
19 11 24 24 20 41 -13 163 -15 177 -3 11 9 19 9 35 -1 23 -14 48 0 48 29 0 10
7 23 15 30 8 7 15 21 15 30 0 37 12 50 44 50 25 0 36 6 46 25 12 22 11 27 -4
44 -20 22 -18 43 5 47 93 21 124 32 127 47 3 15 -8 17 -97 17 -117 0 -125 6
-115 87 9 77 12 86 44 122 37 42 36 72 -3 86 -27 9 -32 6 -68 -35 -21 -25 -48
-55 -59 -68 -33 -38 -42 -63 -46 -130 -2 -44 1 -69 9 -74 9 -5 9 -17 -1 -53
-7 -25 -12 -53 -12 -63 0 -44 -61 -122 -95 -122 -3 0 -5 24 -5 54 0 38 -5 60
-17 71 -9 10 -18 27 -19 39 -1 11 -3 24 -3 29 -2 17 -40 5 -55 -18 -20 -31
-61 -33 -76 -5 -13 25 -2 100 16 107 22 8 16 20 -12 27 -21 6 -24 9 -14 21 7
8 16 13 20 10 5 -3 11 4 15 15 3 11 12 20 19 20 16 0 76 74 76 94 0 9 5 16 10
16 6 0 10 7 10 15 0 7 5 37 11 65 8 36 15 50 26 48 10 -2 21 13 33 41 9 25 34
59 54 75 20 17 36 37 36 44 0 7 4 11 8 8 5 -3 20 6 35 20 14 13 33 24 42 24 8
0 15 7 15 16 0 12 4 14 13 7 6 -6 27 -11 45 -11 20 0 39 -8 46 -18 9 -12 20
-15 39 -10 21 5 33 0 58 -24 18 -16 43 -30 56 -30 23 0 64 -21 91 -47 7 -7 18
-13 23 -13 18 0 24 -2 37 -12 16 -14 15 -29 -7 -57 l-18 -23 -87 17 c-48 10
-90 15 -93 11 -3 -3 9 -13 28 -23 48 -26 79 -59 79 -84 0 -33 68 -78 93 -62 7
4 19 8 27 8 10 0 15 11 15 32 1 43 48 93 87 93 33 0 37 23 12 71 -17 34 -14
45 11 36 9 -4 15 -18 15 -35 0 -36 27 -63 41 -41 5 8 9 22 9 32 0 11 9 21 20
24 12 3 27 18 36 34 8 16 19 29 23 29 5 0 16 3 24 6 16 6 31 -32 16 -42 -5 -3
-9 -12 -9 -20 0 -28 32 -10 54 29 25 45 90 76 104 50 5 -8 15 -11 25 -7 16 6
22 33 18 77 -3 21 26 22 53 2 11 -8 26 -15 34 -15 8 0 22 -10 31 -21 12 -15
23 -20 39 -15 32 11 37 42 11 84 -12 20 -21 51 -21 69 1 18 -5 36 -12 40 -11
6 -13 24 -9 76 3 37 9 67 13 67 18 0 42 -41 38 -65 -3 -14 1 -30 8 -36 8 -6
14 -20 14 -30 0 -10 9 -34 20 -54 11 -20 20 -41 20 -48 0 -7 11 -34 25 -61 30
-60 31 -79 4 -105 -23 -21 -19 -55 6 -65 16 -6 49 25 71 66 17 33 10 99 -16
143 -44 73 -82 260 -49 240 6 -4 10 -23 9 -44 -3 -57 -1 -61 25 -61 32 0 43
25 22 48 -11 12 -13 22 -6 35 8 13 7 22 -1 33 -10 11 -9 14 3 14 8 0 17 -3 19
-7 2 -5 18 -18 36 -31 61 -43 86 -1 31 53 -48 47 -52 59 -25 84 25 23 50 28
79 16 27 -11 22 35 -7 66 -14 15 -26 33 -28 40 -5 25 40 76 87 98 39 18 45 25
40 42 -6 19 -4 20 24 14 18 -4 31 -3 31 3 0 6 14 15 30 21 17 5 30 16 30 23 0
7 9 19 21 26 14 9 18 17 11 25 -15 18 -25 82 -17 107 7 21 8 21 23 6 9 -9 17
-26 17 -38z m1903 -145 c5 -18 -23 -16 -39 3 -11 14 -10 15 11 12 13 -1 25 -9
28 -15z m-2318 -503 c0 -5 -4 -10 -10 -10 -5 0 -10 5 -10 10 0 6 5 10 10 10 6
0 10 -4 10 -10z m-1109 -160 c6 0 7 -4 4 -10 -10 -16 -45 -12 -45 6 0 11 5 14
16 10 9 -3 20 -6 25 -6z m3318 -736 c3 -16 1 -17 -13 -5 -19 16 -21 34 -3 29
6 -3 14 -13 16 -24z m-4169 -22 c0 -5 12 -14 26 -21 23 -10 26 -16 21 -46 -4
-27 0 -44 20 -75 15 -22 30 -40 35 -40 4 0 14 -16 22 -35 8 -19 22 -38 31 -41
13 -5 11 -11 -12 -36 -30 -31 -61 -47 -105 -55 -29 -4 -39 11 -13 21 24 9 17
26 -10 26 -27 0 -34 15 -10 24 8 3 15 12 15 21 0 9 9 15 25 15 20 0 25 5 25
24 0 32 -10 56 -22 56 -15 0 -59 50 -53 60 3 4 -2 13 -10 20 -11 9 -14 51 -6
88 2 6 21 1 21 -6z m4210 -63 c0 -30 -27 -11 -32 22 -4 27 -4 28 14 12 10 -9
18 -24 18 -34z m-3804 -9 c-1 -17 -7 -35 -13 -41 -15 -15 -27 39 -12 57 18 22
27 16 25 -16z m3832 -62 c5 -13 7 -39 6 -58 -1 -19 7 -52 17 -72 23 -45 24
-54 3 -37 -26 21 -41 61 -47 127 -7 63 5 85 21 40z m-4078 -216 c0 -21 -40
-44 -65 -38 -31 8 -32 20 -2 34 27 13 67 15 67 4z m1054 -167 c-5 -13 -47 -45
-59 -45 -14 0 -3 19 14 25 11 3 23 15 26 26 4 10 10 17 15 14 5 -3 7 -12 4
-20z m-158 -51 c-17 -45 34 -75 65 -38 33 40 70 31 139 -34 13 -12 33 -22 45
-22 30 0 35 -8 23 -36 -13 -29 -19 -30 -40 -5 -13 16 -27 18 -94 14 -54 -2
-83 -8 -90 -18 -6 -8 -17 -15 -24 -15 -19 0 -50 -30 -50 -49 0 -12 -3 -12 -12
-3 -17 17 -45 15 -52 -3 -3 -8 -16 -14 -28 -14 -22 2 -22 2 -2 6 30 6 51 47
35 67 -7 8 -10 20 -6 27 4 6 1 22 -6 36 -14 26 -6 51 22 63 8 4 28 14 44 22
39 21 38 21 31 2z m-486 -57 c0 -7 16 -28 35 -47 19 -19 35 -40 35 -47 0 -7
11 -13 26 -13 21 0 25 -4 21 -20 -3 -11 1 -27 9 -34 8 -8 14 -23 14 -33 0 -10
9 -24 20 -31 15 -9 19 -19 14 -36 -11 -44 53 -85 84 -54 17 17 15 48 -4 48 -8
0 -13 4 -10 9 3 4 1 22 -4 40 -7 27 -6 31 10 31 10 0 20 5 22 11 5 14 55 -26
62 -49 3 -9 10 -36 16 -59 10 -42 11 -42 68 -49 31 -3 66 -11 77 -18 26 -14
75 -16 98 -4 16 8 18 6 16 -14 -2 -13 0 -29 5 -36 20 -33 -52 -112 -84 -92
-21 13 -67 12 -89 -2 -15 -9 -25 -9 -46 0 -14 7 -37 9 -51 6 -16 -4 -31 -1
-44 11 -10 9 -24 14 -30 10 -6 -4 -22 1 -35 9 -42 28 -113 -1 -99 -39 10 -24
-34 -28 -65 -6 -16 12 -36 21 -44 21 -9 0 -29 11 -45 25 -17 14 -41 25 -55 25
-32 0 -62 56 -48 92 18 49 -31 93 -77 69 -14 -8 -29 -8 -47 -1 -39 15 -63 12
-84 -9 -14 -14 -23 -16 -36 -8 -31 17 -105 2 -132 -27 -24 -26 -51 -31 -87
-17 -15 6 -11 10 25 23 24 9 56 19 70 22 25 5 38 33 43 91 1 13 50 60 70 68 9
4 19 20 22 36 7 34 30 45 84 42 27 -1 42 5 59 23 l23 25 54 -55 c30 -30 58
-54 64 -54 5 0 10 -7 10 -15 0 -8 4 -15 8 -15 4 0 24 -15 44 -33 30 -27 35
-38 31 -62 l-6 -28 31 22 c18 12 32 27 32 33 0 6 8 20 17 31 17 18 17 19 -2
33 -11 7 -25 18 -32 24 -7 5 -17 10 -22 10 -13 0 -68 60 -92 100 -16 25 -16
30 -4 30 8 0 15 5 15 10 0 7 6 7 20 0 11 -6 20 -16 20 -23z m228 -305 c-12 -5
-39 19 -33 29 3 4 14 1 23 -9 10 -9 14 -19 10 -20z m2747 -658 c0 -10 -8 -20
-17 -22 -18 -3 -26 27 -11 42 12 11 28 0 28 -20z m-229 -457 c2 -22 18 -52 51
-96 19 -24 32 -45 31 -47 -2 -1 -20 3 -40 9 -32 10 -41 20 -62 67 -15 33 -23
65 -19 78 4 16 1 22 -11 22 -9 0 -16 6 -16 14 0 21 -20 30 -33 17 -16 -16 -27
-13 -27 7 0 44 22 41 74 -10 28 -27 51 -55 52 -61z m-102 -72 c12 -21 44 -52
106 -104 22 -18 40 -41 40 -51 0 -10 14 -28 30 -40 17 -12 30 -27 30 -35 0 -7
6 -15 14 -18 21 -8 15 -81 -7 -85 -28 -6 -65 24 -69 55 -2 19 -12 32 -31 41
-28 14 -57 64 -57 98 0 18 -94 114 -112 114 -10 0 -37 29 -38 40 0 3 19 5 42
4 30 0 45 -6 52 -19z"/>
<path d="M7721 4534 c-12 -9 -21 -22 -21 -30 0 -8 -4 -14 -10 -14 -5 0 -10 -9
-10 -21 0 -12 -8 -23 -20 -26 -11 -3 -20 -9 -20 -13 0 -21 15 -42 35 -50 15
-6 25 -20 29 -45 4 -21 19 -49 33 -62 19 -20 22 -28 11 -34 -11 -7 -10 -14 3
-41 9 -18 22 -46 28 -62 10 -24 15 -27 39 -21 15 4 36 8 48 9 37 5 47 17 41
50 -9 55 -60 149 -104 192 -46 44 -55 77 -24 93 40 22 36 64 -9 79 -21 8 -33
7 -49 -4z m67 -31 c2 -7 -8 -18 -22 -24 -21 -10 -26 -19 -26 -47 0 -27 10 -45
48 -87 49 -54 111 -180 96 -194 -5 -5 -25 -11 -44 -14 -34 -5 -37 -3 -57 41
-17 35 -19 49 -10 63 9 15 6 22 -16 43 -14 13 -29 37 -32 53 -11 49 -14 53
-40 63 -30 11 -33 30 -5 30 11 0 20 6 20 13 0 8 7 28 16 46 13 26 21 32 42 29
14 -2 27 -9 30 -15z"/>
<path d="M8013 4522 c-22 -20 -47 -90 -41 -118 2 -15 12 -19 40 -19 21 -1 43
-6 50 -13 7 -7 18 -12 24 -12 19 0 16 120 -2 127 -8 3 -14 11 -14 19 0 25 -36
35 -57 16z m37 -27 c0 -9 6 -18 14 -21 8 -3 13 -19 12 -42 l-1 -37 -42 4 c-33
2 -43 7 -43 21 0 10 7 23 15 30 8 7 15 23 15 36 0 15 6 24 15 24 8 0 15 -7 15
-15z"/>
<path d="M2430 6571 c0 -6 -12 -14 -27 -17 -16 -4 -48 -18 -72 -31 -24 -12
-50 -23 -57 -23 -7 0 -16 -9 -19 -20 -4 -13 -15 -20 -31 -20 -13 0 -24 -4 -24
-8 0 -5 -14 -9 -30 -9 -48 0 -63 -22 -66 -104 -2 -40 1 -78 6 -84 11 -13 2
-77 -10 -70 -4 2 -5 15 -3 28 9 44 -46 43 -137 -1 -53 -26 -55 -28 -57 -69 -1
-30 5 -51 20 -69 18 -24 25 -26 70 -20 l50 5 -21 -20 c-12 -11 -22 -26 -22
-34 0 -8 -6 -12 -14 -9 -19 7 -134 -55 -172 -94 -53 -55 -53 -167 1 -204 6 -5
4 -17 -7 -35 -20 -35 -8 -63 27 -63 13 0 27 -4 30 -10 3 -5 15 -10 26 -10 27
0 24 -16 -8 -37 -52 -34 -113 -96 -113 -115 0 -20 28 -24 58 -9 9 5 37 19 62
31 101 51 161 95 167 122 5 25 109 128 129 128 4 0 -11 -16 -34 -36 -28 -24
-42 -44 -42 -60 0 -13 1 -24 3 -24 35 5 114 43 122 59 8 18 15 20 45 14 19 -3
49 -17 66 -30 17 -12 36 -23 43 -23 21 0 62 -33 57 -46 -3 -7 2 -18 11 -25 8
-7 26 -37 38 -66 23 -50 25 -52 54 -47 l31 7 1 -94 c3 -153 11 -249 25 -271 5
-7 9 -36 10 -65 2 -40 -1 -53 -12 -53 -22 0 -16 -27 19 -83 29 -47 32 -57 26
-102 -4 -27 -23 -96 -43 -153 -51 -148 -56 -255 -16 -368 18 -51 47 -106 79
-149 29 -38 54 -80 57 -94 4 -14 15 -51 25 -81 15 -48 16 -57 3 -71 -12 -14
-12 -18 5 -33 10 -9 40 -52 65 -96 47 -79 66 -96 83 -79 12 12 -18 108 -44
148 -10 15 -19 34 -20 44 -2 10 -9 30 -17 45 -16 31 -31 102 -22 102 3 0 11
-21 17 -46 7 -25 31 -73 54 -107 142 -209 137 -199 134 -241 -3 -69 -1 -74 57
-113 101 -69 143 -92 200 -109 43 -12 58 -13 69 -4 12 10 20 9 39 -4 51 -33
156 -86 171 -86 17 0 37 -41 39 -80 1 -16 10 -29 29 -38 15 -7 33 -22 40 -33
6 -10 22 -19 35 -19 13 0 30 -7 38 -15 9 -8 32 -15 53 -15 44 0 81 -29 81 -65
0 -13 3 -30 6 -38 3 -8 -13 -34 -38 -62 -60 -65 -67 -82 -68 -150 0 -34 -4
-65 -10 -71 -14 -14 7 -78 50 -149 20 -33 51 -90 68 -126 21 -42 62 -97 112
-150 43 -46 90 -97 105 -113 17 -19 28 -43 30 -70 2 -22 7 -79 11 -126 9 -99
9 -97 1 -260 -6 -131 -16 -190 -35 -226 -18 -33 -7 -202 14 -225 9 -10 25 -58
35 -106 23 -109 23 -103 0 -103 -21 0 -37 -32 -26 -50 5 -8 11 -7 21 1 11 9
14 7 14 -9 0 -11 7 -27 15 -36 8 -8 15 -23 15 -34 0 -11 7 -25 15 -32 11 -9
12 -17 4 -33 -9 -16 -8 -23 2 -31 8 -6 20 -24 27 -39 19 -43 73 -107 91 -107
18 -1 81 -55 81 -70 0 -20 27 -9 38 15 7 15 20 25 32 25 11 0 21 5 21 10 5 37
2 45 -16 48 -56 8 -63 12 -58 30 2 11 -3 36 -11 57 -22 51 -20 99 6 172 19 51
20 64 9 77 -7 9 -19 16 -26 16 -15 0 -28 27 -19 41 3 5 12 9 20 9 10 0 14 12
14 39 0 29 7 48 25 67 31 34 31 39 -1 61 l-26 16 25 14 c15 7 28 25 32 43 4
16 10 30 15 30 16 0 111 81 121 103 6 14 7 32 1 47 -8 22 -6 26 17 36 19 8 31
8 44 0 28 -18 49 4 65 70 9 35 25 69 40 84 28 29 75 99 78 118 1 7 -2 28 -7
47 -8 26 -6 40 6 58 18 28 77 62 125 72 46 9 54 17 90 81 38 66 41 78 44 186
1 53 7 93 14 100 7 7 12 19 12 29 0 9 14 32 30 50 60 66 80 128 55 166 -9 13
-22 23 -29 23 -8 0 -28 11 -44 24 -42 36 -110 60 -169 60 -43 -1 -53 2 -53 17
0 20 -73 49 -139 54 -69 6 -77 12 -50 34 l23 18 -20 28 c-10 16 -28 43 -39 61
-32 52 -76 80 -140 91 -44 7 -95 33 -95 49 0 8 -18 25 -39 39 -22 13 -53 37
-69 53 -24 24 -42 30 -95 36 -35 3 -71 4 -79 1 -9 -4 -18 1 -21 9 -4 9 -16 16
-27 16 -11 0 -20 5 -20 11 0 7 -9 9 -24 5 -15 -4 -26 -1 -28 6 -3 8 -14 3 -31
-14 -15 -15 -39 -28 -54 -30 -21 -2 -33 -13 -49 -43 -19 -37 -54 -60 -54 -36
0 24 -33 41 -80 41 -75 0 -94 21 -94 106 0 38 2 76 4 84 7 20 -62 53 -115 56
-36 2 -40 4 -37 25 2 13 10 29 18 35 8 6 14 22 14 35 0 13 9 30 20 37 24 15
27 57 4 66 -30 11 -60 6 -77 -14 -9 -11 -23 -20 -32 -20 -8 0 -22 -14 -30 -30
-20 -38 -54 -52 -102 -42 -57 12 -72 42 -73 142 -1 124 3 147 32 177 14 16 28
36 31 46 4 10 18 18 34 19 15 0 42 2 58 3 17 2 40 -2 53 -8 18 -8 26 -7 45 10
26 23 96 28 112 8 5 -7 19 -15 30 -17 15 -2 26 -20 41 -64 24 -73 51 -117 67
-111 8 2 13 36 15 98 1 52 3 105 4 119 2 25 113 150 133 150 26 1 57 41 58 75
1 19 4 35 7 35 4 0 24 32 45 71 41 74 64 94 97 86 23 -6 58 25 58 51 0 21 25
45 92 90 56 39 65 40 44 7 -17 -26 -14 -45 6 -45 21 0 137 63 143 77 8 22 -14
45 -37 37 -10 -3 -18 -2 -17 3 4 20 -2 33 -15 33 -17 0 -27 33 -15 51 16 26
10 48 -16 55 -14 3 -25 9 -25 13 0 8 100 5 123 -4 9 -4 23 -2 31 4 7 6 20 9
29 5 8 -3 18 -1 22 5 10 17 25 13 25 -7 0 -11 -9 -27 -20 -37 -27 -24 -27 -72
0 -80 11 -3 29 -3 41 0 18 6 19 5 10 -13 -18 -35 14 -74 34 -42 10 16 23 12
30 -9 7 -22 32 -22 45 -1 6 10 3 21 -6 31 -10 11 -14 31 -12 55 2 25 -2 39
-11 42 -28 9 -49 40 -44 65 6 31 -10 42 -38 26 -16 -8 -20 -8 -14 0 3 6 23 19
43 29 47 22 63 73 34 106 -11 11 -41 52 -67 91 -34 51 -45 75 -40 92 3 13 0
33 -6 45 -6 12 -14 44 -18 72 -8 63 -26 69 -78 27 -21 -17 -47 -31 -59 -31
-21 0 -22 3 -17 59 5 58 4 61 -28 94 -19 19 -39 41 -45 49 -16 20 -122 33
-140 17 -8 -6 -14 -27 -14 -47 0 -22 -9 -47 -24 -66 -30 -40 -41 -90 -27 -125
19 -45 -14 -107 -73 -136 -18 -9 -21 -21 -24 -80 -3 -65 -19 -105 -43 -105
-14 0 -29 63 -29 124 0 72 -5 81 -52 100 -20 9 -46 29 -58 46 -12 17 -43 41
-70 55 -53 27 -62 42 -54 84 5 22 1 32 -16 44 -26 18 -22 37 19 95 28 37 94
90 135 105 11 4 16 13 12 22 -3 10 1 15 14 15 10 0 22 5 26 11 3 6 27 20 51
31 24 11 47 27 50 36 3 9 14 25 25 35 17 17 18 17 18 -8 0 -16 6 -25 15 -25 8
0 15 4 15 9 0 5 9 7 21 4 17 -5 20 -2 17 18 -3 21 0 24 28 21 28 -3 33 1 43
29 6 18 11 48 11 68 0 28 5 39 22 46 31 14 34 40 7 62 -36 30 -59 56 -54 61 3
3 15 -4 28 -16 26 -24 95 -30 115 -10 9 9 13 7 18 -5 8 -22 -13 -48 -32 -40
-10 4 -14 -2 -14 -21 0 -21 5 -26 26 -26 37 0 64 -18 64 -41 0 -17 -4 -20 -28
-14 -33 7 -46 -5 -55 -52 -4 -21 -2 -33 7 -36 17 -7 56 20 56 37 0 14 46 10
56 -5 5 -9 -21 -37 -52 -55 -10 -6 -20 -21 -22 -33 -3 -21 -7 -22 -52 -16 -42
6 -50 4 -59 -14 -6 -11 -11 -28 -11 -39 0 -23 29 -37 44 -22 17 17 44 11 52
-12 10 -32 41 -72 107 -140 31 -33 57 -64 57 -69 0 -6 6 -9 13 -6 6 2 12 20
12 41 0 23 4 35 11 32 17 -7 34 15 34 44 0 14 5 31 10 36 7 7 4 18 -10 34 -11
13 -20 37 -20 56 0 18 -3 39 -6 48 -3 9 -2 16 4 16 6 0 17 -19 24 -42 16 -46
43 -61 63 -35 6 8 19 16 30 18 12 3 25 18 32 39 11 34 10 36 -18 47 -19 9 -27
18 -23 28 4 8 1 15 -5 15 -6 0 -11 9 -11 20 0 11 -4 20 -8 20 -5 0 -15 12 -22
26 -12 22 -12 27 0 35 13 8 12 12 -4 24 -19 15 -19 15 3 15 35 0 25 44 -11 48
-32 4 -35 10 -11 27 14 11 15 16 4 43 -7 17 -21 38 -32 48 -17 15 -19 15 -25
0 -9 -23 -23 -10 -16 16 4 17 2 20 -15 16 -16 -4 -19 -2 -15 14 2 10 -4 28
-13 38 -17 19 -17 21 1 41 19 21 19 21 -10 44 -16 13 -43 26 -60 30 -78 16
-94 16 -101 5 -5 -8 -12 -2 -21 19 -17 41 -50 41 -95 -1 -64 -60 -93 -107 -96
-156 -2 -42 1 -49 37 -83 l39 -37 -16 -34 c-14 -30 -49 -67 -64 -68 -3 0 -5
19 -5 43 1 36 -2 42 -21 45 -25 4 -38 43 -24 71 13 24 16 80 7 114 -6 20 -4
33 8 46 9 10 16 22 16 28 0 5 13 8 29 5 23 -3 32 1 42 19 7 13 20 30 31 37 29
21 21 46 -20 69 -38 22 -72 17 -72 -11 0 -7 -13 -22 -30 -34 -17 -13 -30 -32
-30 -43 0 -12 -14 -42 -32 -68 -35 -51 -59 -139 -60 -221 -1 -28 -7 -39 -34
-57 -31 -20 -34 -21 -34 -4 0 10 9 26 20 36 22 20 28 83 9 102 -14 14 -39 6
-39 -12 0 -8 -9 -17 -20 -20 -21 -7 -27 -39 -10 -50 15 -9 -12 -45 -35 -45
-27 0 -159 66 -148 73 6 4 28 -3 51 -14 55 -28 72 -20 72 31 0 22 -4 40 -10
40 -5 0 -10 5 -10 10 0 6 13 10 29 10 35 0 46 13 28 32 -25 25 -27 49 -11 140
8 50 13 102 9 115 -8 33 -37 26 -42 -9 -3 -24 -30 -98 -36 -98 -1 0 -2 26 -2
57 0 46 -3 58 -17 61 -10 2 -19 -6 -24 -20 l-7 -23 -8 24 c-5 12 -18 25 -29
28 -12 3 -20 14 -20 25 0 19 -5 20 -57 16 -44 -4 -52 -3 -33 5 14 5 35 13 46
17 22 9 32 44 26 88 -3 19 -8 23 -27 18 -17 -4 -24 -1 -28 14 -5 20 -71 53
-96 48 -8 -2 -18 -15 -23 -29 -5 -15 -36 -55 -69 -90 -45 -48 -58 -69 -54 -84
3 -11 9 -37 12 -57 7 -44 28 -67 45 -50 7 7 20 12 29 12 9 0 22 14 30 33 13
32 26 47 43 47 5 0 0 -10 -12 -23 -17 -18 -19 -26 -10 -35 9 -9 8 -15 -8 -26
-16 -13 -17 -18 -6 -35 6 -12 12 -28 12 -36 0 -8 7 -15 16 -15 8 0 12 -5 9
-10 -4 -6 -15 -8 -24 -5 -10 3 -24 -1 -31 -10 -11 -13 -10 -21 8 -45 12 -16
22 -40 22 -53 0 -13 15 -37 35 -57 31 -30 38 -33 55 -22 27 16 69 17 52 0 -17
-17 -15 -38 3 -38 22 0 18 -17 -5 -23 -13 -3 -24 1 -30 13 -5 10 -24 21 -42
24 -93 19 -111 24 -95 25 27 2 21 44 -10 72 -16 14 -40 33 -55 42 -16 10 -28
23 -28 31 0 23 -38 49 -64 44 -18 -4 -26 0 -30 15 -3 14 -11 18 -25 14 -17 -4
-21 0 -21 22 0 53 -40 68 -65 24 -13 -23 -15 -24 -10 -5 6 22 6 22 -67 16 -40
-3 -88 -13 -106 -22 -32 -16 -34 -16 -44 3 -23 41 -134 136 -151 129 -7 -2
-26 11 -42 31 -17 19 -35 35 -41 35 -6 0 -17 13 -24 30 -7 16 -20 32 -30 35
-10 3 -20 14 -23 25 -3 11 -17 24 -31 30 -14 5 -26 14 -26 19 0 5 -8 11 -17
14 -10 2 -26 8 -35 12 -11 4 -18 3 -18 -4z m49 -40 c6 -10 22 -22 36 -25 14
-4 25 -11 25 -18 0 -6 9 -20 21 -32 11 -12 43 -45 70 -74 30 -32 61 -55 79
-58 16 -4 32 -14 35 -23 3 -9 20 -25 38 -36 18 -11 43 -37 57 -58 20 -32 28
-37 50 -32 14 4 32 12 40 19 8 7 30 16 48 20 45 8 38 -13 -9 -29 -19 -7 -36
-20 -37 -30 -4 -16 2 -17 55 -10 32 4 65 13 74 21 8 8 21 14 27 14 6 0 15 7
20 16 5 9 15 14 21 10 6 -4 9 -11 6 -16 -3 -5 -3 -21 1 -35 5 -19 12 -25 24
-22 9 2 22 -4 29 -14 14 -23 30 -24 45 -3 11 14 16 11 39 -19 15 -20 47 -50
72 -68 51 -36 55 -46 23 -51 -15 -2 -23 -10 -23 -23 0 -14 10 -21 40 -28 124
-26 125 -26 125 -68 0 -44 12 -50 34 -18 8 12 27 30 42 40 25 16 29 16 63 1
20 -9 43 -22 51 -28 8 -7 26 -14 40 -16 26 -3 70 -40 70 -57 0 -25 21 -17 61
23 24 23 51 45 59 48 10 3 15 18 16 44 3 104 17 168 50 225 19 31 34 62 34 68
0 6 13 24 29 40 16 16 31 35 33 43 4 10 10 10 31 1 32 -15 35 -33 7 -40 -11
-3 -20 -10 -19 -17 4 -32 -2 -37 -34 -31 -30 6 -34 4 -54 -35 -15 -31 -19 -50
-13 -70 7 -25 -1 -94 -12 -105 -2 -3 1 -35 7 -72 11 -68 28 -91 40 -53 4 12 9
19 12 17 2 -3 -2 -18 -10 -34 -15 -29 -12 -53 7 -65 17 -12 26 -9 26 8 0 8 5
12 10 9 13 -8 52 30 68 68 l12 28 30 -23 c30 -21 30 -23 10 -30 -18 -7 -21
-15 -19 -48 2 -21 0 -42 -4 -46 -4 -4 -7 -14 -7 -23 0 -9 -5 -23 -10 -31 -8
-13 -14 -11 -35 13 -29 31 -46 28 -38 -6 4 -19 3 -20 -7 -4 -16 25 -39 21 -52
-9 -12 -27 -34 -29 -95 -9 -39 12 -27 -20 12 -35 19 -8 35 -18 35 -22 0 -5
-17 -16 -37 -24 -21 -8 -46 -19 -56 -24 -9 -6 -35 -7 -57 -4 -45 7 -50 1 -17
-27 l22 -20 -25 -17 c-78 -54 -108 -83 -132 -127 -33 -59 -35 -90 -8 -105 15
-8 19 -18 16 -42 -4 -34 29 -78 59 -78 9 0 35 -20 58 -44 23 -25 59 -52 80
-61 38 -16 40 -20 37 -90 -1 -47 31 -129 54 -138 9 -4 27 4 43 17 24 21 28 32
31 95 4 70 5 71 38 87 19 9 34 23 34 30 0 8 7 26 16 39 13 19 15 37 9 80 -6
49 -3 61 21 102 15 26 27 63 28 82 l1 36 50 -4 c33 -2 53 -9 59 -20 5 -9 23
-29 38 -45 30 -30 36 -59 24 -112 -7 -26 -4 -32 19 -42 22 -10 33 -9 71 8 24
11 44 25 44 30 0 6 7 10 15 10 9 0 12 -6 9 -15 -4 -8 1 -34 11 -57 10 -26 14
-54 10 -74 -5 -27 0 -41 30 -79 19 -26 35 -53 35 -60 0 -7 14 -25 30 -38 36
-31 42 -77 10 -77 -11 0 -20 -4 -20 -9 0 -5 -10 -13 -22 -17 -13 -4 -31 -16
-41 -27 -9 -11 -20 -18 -23 -14 -3 3 -16 2 -28 -2 -11 -5 -50 -4 -86 1 -62 8
-66 7 -86 -15 -12 -14 -38 -33 -58 -42 -44 -21 -67 -55 -37 -55 11 0 21 5 23
11 2 5 21 15 43 20 59 15 60 15 65 4 3 -5 -10 -11 -27 -13 -39 -4 -43 -18 -10
-33 13 -6 28 -24 35 -41 6 -16 15 -27 20 -24 6 3 12 -4 15 -15 4 -16 10 -19
29 -14 30 9 24 5 -36 -29 -46 -27 -51 -22 -18 17 23 26 4 39 -38 24 -86 -31
-180 -109 -180 -150 0 -21 -19 -32 -32 -19 -18 18 -75 -29 -109 -91 -27 -46
-37 -56 -52 -51 -18 6 -19 2 -12 -44 l7 -50 -54 -40 c-29 -22 -72 -59 -94 -83
-35 -38 -43 -53 -50 -104 -4 -33 -7 -82 -7 -109 2 -58 -9 -50 -27 19 -18 68
-28 85 -49 85 -10 0 -26 9 -36 20 -16 17 -26 19 -69 14 -32 -5 -57 -14 -68
-27 -10 -11 -18 -15 -18 -9 0 8 -27 12 -83 12 -82 0 -82 0 -96 -31 -7 -17 -21
-38 -31 -47 -28 -27 -39 -88 -36 -200 2 -99 3 -104 32 -132 52 -51 166 -39
192 20 8 17 19 30 27 30 7 0 18 7 25 15 14 17 50 21 50 5 0 -5 -9 -14 -20 -20
-11 -6 -20 -21 -20 -34 0 -13 -6 -29 -14 -35 -8 -7 -13 -30 -12 -59 1 -41 3
-47 21 -44 31 5 47 4 85 -5 l35 -9 1 -59 c1 -134 27 -171 116 -167 43 2 50 -1
66 -26 29 -49 74 -30 107 45 12 25 19 30 36 26 15 -4 27 0 35 12 13 17 14 16
15 -16 1 -19 1 -40 0 -46 -1 -7 5 -13 14 -13 9 0 15 9 15 22 0 48 62 79 73 37
5 -17 11 -20 29 -15 13 4 44 7 71 6 40 -1 58 -9 111 -48 36 -26 65 -54 66 -62
1 -18 67 -50 128 -62 53 -9 109 -49 123 -86 6 -15 20 -35 32 -45 21 -17 21
-18 3 -32 -25 -19 -15 -65 15 -65 15 0 19 -5 16 -15 -10 -24 9 -26 36 -5 23
18 28 19 54 6 15 -8 36 -17 46 -20 9 -3 17 -15 17 -27 0 -20 4 -21 48 -16 55
6 142 -20 181 -56 14 -13 38 -28 54 -35 43 -18 30 -82 -31 -147 -48 -52 -64
-101 -64 -196 0 -79 -15 -142 -39 -159 -4 -3 -12 -18 -18 -33 -6 -16 -24 -33
-46 -42 -19 -8 -50 -21 -68 -29 -81 -34 -110 -80 -88 -139 8 -20 4 -34 -19
-71 -16 -25 -34 -46 -39 -46 -13 0 -40 -57 -55 -117 l-12 -48 -55 -1 c-30 -1
-61 2 -70 7 -26 13 -30 -1 -9 -29 11 -13 20 -40 20 -58 0 -27 -7 -38 -37 -61
-21 -15 -40 -31 -43 -34 -3 -3 -17 -9 -32 -12 -18 -5 -25 -13 -23 -24 4 -27
-12 -50 -40 -57 -31 -8 -32 -20 -2 -50 23 -23 23 -24 5 -46 -12 -15 -17 -33
-14 -52 3 -22 -1 -32 -20 -44 -13 -9 -24 -25 -24 -36 0 -28 18 -58 35 -58 25
0 25 -17 0 -79 -30 -73 -31 -96 -5 -156 22 -52 13 -86 -22 -77 -10 2 -24 -1
-32 -7 -11 -9 -20 -4 -45 24 -17 20 -31 44 -31 54 0 10 -7 24 -15 31 -8 7 -15
16 -15 21 0 5 7 9 15 9 9 0 15 9 15 24 0 18 -6 25 -22 28 -16 2 -23 10 -23 26
0 12 -5 26 -11 30 -7 4 -14 39 -17 77 -5 61 -15 125 -29 187 -2 9 -11 25 -20
35 -20 22 -28 183 -11 205 41 51 48 576 8 671 -7 18 -56 78 -109 132 -72 76
-105 119 -135 180 -22 44 -54 104 -70 132 -34 59 -42 113 -21 138 10 12 10 19
2 27 -28 28 -13 75 39 132 61 67 70 95 52 159 -16 54 -55 82 -105 75 -16 -3
-33 1 -39 9 -6 7 -20 13 -30 13 -10 0 -29 10 -42 23 -14 12 -35 30 -48 40 -16
12 -20 20 -11 23 13 6 17 34 4 34 -5 0 -14 11 -20 25 -6 14 -20 25 -29 25 -21
0 -98 38 -145 71 -26 19 -46 24 -98 25 -56 0 -75 5 -125 34 -33 19 -84 52
-114 74 -52 39 -53 41 -48 82 5 44 -20 107 -64 163 -79 100 -113 155 -123 196
-13 48 -31 80 -47 80 -31 0 -2 -160 39 -225 17 -26 42 -88 42 -105 0 -5 -11 7
-25 27 -14 20 -25 41 -25 47 0 5 -14 24 -32 41 -23 23 -28 34 -19 40 15 9 7
75 -14 118 -8 15 -16 39 -19 54 -2 15 -26 55 -51 89 -26 33 -58 89 -70 124
-13 34 -29 73 -35 85 -8 15 -10 44 -6 79 3 31 7 77 9 102 3 25 12 60 21 77 9
17 16 37 16 45 0 8 11 40 25 71 14 31 26 69 26 84 2 23 2 24 6 5 6 -31 21 -29
33 3 9 24 3 66 -18 124 -3 8 -6 22 -6 30 -1 8 -11 16 -23 18 -30 4 -50 62 -27
79 18 13 11 53 -11 53 -16 0 -26 78 -29 239 l-2 115 -29 18 c-17 10 -38 21
-47 24 -10 4 -18 14 -18 24 0 9 -9 29 -20 43 -11 14 -20 32 -20 41 0 16 -37
46 -57 46 -8 0 -31 11 -52 25 -21 14 -46 27 -57 30 -10 2 -29 7 -41 11 -18 5
-26 0 -40 -24 -13 -22 -26 -31 -51 -34 l-33 -4 33 25 c75 59 84 70 68 81 -23
16 -60 2 -105 -38 -22 -21 -57 -48 -77 -61 -39 -23 -46 -35 -28 -46 13 -8 -1
-21 -70 -66 -79 -52 -119 -71 -138 -66 -14 4 -13 6 6 12 12 4 22 11 22 16 0 4
21 22 46 40 40 27 45 34 39 57 -7 29 -24 44 -38 35 -5 -3 -21 1 -35 8 -15 7
-28 14 -30 15 -1 0 10 27 24 58 20 44 23 61 15 69 -9 9 -16 6 -30 -11 -25 -34
-42 -10 -37 52 3 38 11 55 37 83 40 41 121 83 161 83 22 0 28 5 28 21 0 12 11
30 25 41 45 35 33 48 -45 48 -38 0 -70 2 -70 4 0 2 -3 11 -6 20 -4 11 -1 16
10 16 20 0 20 9 0 31 -15 17 -13 19 35 43 28 14 60 26 71 26 18 0 19 -3 8 -20
-15 -23 -13 -26 35 -34 30 -6 37 -4 37 10 0 10 5 14 15 11 25 -10 27 12 6 54
-23 43 -28 127 -11 160 8 13 21 19 45 19 19 0 35 5 35 11 0 6 9 8 20 4 15 -5
23 0 31 18 7 15 26 29 50 37 22 7 44 19 50 27 6 7 21 13 33 13 11 0 28 5 36
10 21 14 28 12 39 -9z m1031 -47 c0 -5 7 -19 15 -30 13 -16 16 -17 25 -4 8 13
10 12 10 -3 0 -27 -19 -57 -36 -57 -8 0 -41 -12 -71 -27 -39 -19 -60 -37 -67
-55 -6 -16 -17 -28 -26 -28 -9 0 -21 -5 -28 -12 -9 -9 -12 -8 -12 8 0 10 -3
35 -6 55 -5 32 -3 38 15 44 11 3 21 11 21 17 0 6 18 28 40 49 22 21 40 47 40
57 0 10 3 21 6 25 8 8 73 -26 74 -39z m50 -164 c-9 -17 -7 -20 15 -26 16 -4
25 -13 25 -26 0 -19 5 -20 51 -16 43 5 49 3 43 -11 -15 -34 -17 -81 -3 -81 23
0 36 13 53 54 20 47 29 44 16 -6 -14 -47 -17 -138 -6 -160 7 -15 3 -18 -17
-18 -13 0 -30 -6 -37 -14 -9 -12 -7 -18 9 -33 24 -20 28 -53 7 -53 -8 0 -18 5
-21 10 -3 6 -14 10 -24 10 -10 0 -23 11 -29 25 -11 23 -16 25 -70 22 -32 -2
-64 -7 -71 -11 -19 -12 -63 34 -58 61 2 14 -3 29 -14 39 -26 24 -24 31 12 38
30 6 67 -7 82 -28 5 -8 10 -6 17 4 12 20 -45 80 -76 80 -14 0 -25 8 -29 21 -8
24 -4 30 24 32 27 2 27 24 1 32 -20 6 -28 25 -11 25 5 0 12 9 16 19 6 19 26
26 83 30 20 1 21 -2 12 -19z m-505 -131 c-8 -12 -56 -32 -62 -25 -5 5 46 35
60 36 5 0 5 -5 2 -11z m1195 -10 c0 -5 -9 -22 -20 -37 -12 -16 -27 -55 -35
-88 -18 -73 -18 -74 -2 -73 13 0 67 106 67 133 0 10 15 23 35 32 47 19 50 18
50 -16 0 -16 -3 -30 -7 -30 -4 0 -12 -9 -18 -21 -14 -25 5 -53 31 -46 10 3 23
-1 29 -8 14 -17 40 -9 40 12 0 8 6 13 13 10 7 -2 11 -18 9 -40 -3 -26 1 -37
10 -37 7 -1 29 -14 48 -30 38 -33 55 -38 46 -14 -3 8 -2 12 4 9 6 -3 10 -15
10 -26 0 -11 -4 -18 -9 -15 -5 3 -14 -1 -22 -10 -10 -12 -9 -19 8 -36 18 -17
19 -25 11 -50 -7 -19 -7 -32 -1 -37 5 -3 16 -21 24 -38 8 -18 17 -33 22 -33 4
0 16 -20 27 -45 11 -25 26 -45 35 -45 8 0 15 -3 15 -6 0 -14 -22 -44 -32 -44
-6 0 -20 -7 -30 -17 -17 -15 -18 -15 -18 8 0 14 -13 40 -29 59 l-28 34 -17
-31 c-10 -20 -12 -34 -6 -38 6 -3 10 -20 10 -36 0 -17 7 -43 15 -59 9 -18 11
-31 5 -35 -6 -3 -10 -16 -11 -28 0 -15 -2 -17 -6 -7 -10 26 -35 50 -54 50 -16
0 -16 -4 4 -50 11 -27 18 -52 15 -56 -8 -7 -108 96 -108 110 0 5 -7 17 -15 26
-8 9 -16 27 -18 40 -5 30 -19 35 -59 21 -37 -13 -46 -8 -27 15 10 13 24 15 61
10 47 -7 49 -6 54 21 3 17 16 33 30 40 13 6 22 8 19 3 -7 -12 23 -33 39 -27
16 7 11 39 -12 74 -8 13 -11 30 -8 39 7 18 -48 91 -75 99 -15 5 -15 10 -6 36
9 22 9 34 0 47 -11 17 -22 18 -79 6 -23 -4 -37 0 -60 18 -16 13 -40 25 -53 26
-29 1 -61 29 -61 54 0 13 8 18 30 18 17 0 30 4 30 9 0 5 -13 11 -30 15 -16 3
-30 10 -30 15 0 5 16 28 35 51 19 23 35 46 35 52 0 5 4 7 9 4 4 -3 16 3 26 14
17 19 35 19 35 -1z m130 -60 c0 -5 -4 -9 -10 -9 -5 0 -10 7 -10 16 0 8 5 12
10 9 6 -3 10 -10 10 -16z m54 2 c16 -18 16 -18 -9 -14 -14 3 -25 12 -25 19 0
19 14 17 34 -5z m-17 -45 c-2 -6 -21 -12 -42 -14 -30 -2 -36 0 -27 10 13 16
74 20 69 4z m-554 -144 c-3 -12 -12 -22 -19 -22 -18 0 -18 6 4 28 21 23 23 22
15 -6z m478 -235 c-8 -8 -11 -7 -11 4 0 20 13 34 18 19 3 -7 -1 -17 -7 -23z
m-1694 -802 c9 -24 -1 -27 -15 -5 -8 13 -8 20 -2 20 6 0 13 -7 17 -15z m40
-37 c-3 -8 -6 -5 -6 6 -1 11 2 17 5 13 3 -3 4 -12 1 -19z m13 -54 c0 -8 -4
-12 -10 -9 -5 3 -10 10 -10 16 0 5 5 9 10 9 6 0 10 -7 10 -16z m1964 -155 c-2
-4 5 -14 17 -23 14 -10 20 -21 16 -35 -3 -11 1 -25 9 -32 8 -6 14 -16 14 -21
0 -6 -8 0 -19 13 -17 21 -21 22 -36 9 -17 -14 -17 -13 -7 7 17 32 16 33 -33
33 -49 0 -50 1 -33 33 18 35 39 46 59 34 10 -6 16 -14 13 -18z m-289 -3989 c3
-5 -3 -10 -14 -10 -12 0 -21 5 -21 10 0 6 6 10 14 10 8 0 18 -4 21 -10z m95
-10 c0 -4 -18 -10 -40 -12 -22 -2 -40 -2 -40 -1 0 1 12 9 27 17 27 13 53 12
53 -4z"/>
<path d="M7733 6368 c-12 -6 -27 -23 -33 -38 -8 -18 -21 -30 -40 -33 -19 -4
-38 -21 -59 -52 -17 -25 -31 -50 -31 -56 0 -5 -11 -7 -24 -3 -29 7 -42 -19
-27 -57 6 -16 4 -32 -5 -50 -11 -21 -11 -30 1 -53 13 -24 12 -28 -5 -39 -23
-14 -26 -58 -8 -117 10 -31 19 -41 41 -46 16 -3 31 -12 34 -20 10 -28 42 -37
69 -19 32 21 30 34 -11 73 -27 27 -33 39 -29 61 4 18 0 32 -10 40 -11 9 -12
18 -6 29 13 23 41 102 47 133 3 15 16 37 30 50 14 13 39 39 57 57 18 17 37 32
43 32 15 0 24 26 16 46 -3 9 -6 28 -7 42 -1 29 -12 35 -43 20z m-10 -107 c-21
-23 -42 -41 -48 -41 -15 0 -50 -59 -70 -120 -9 -30 -22 -66 -27 -79 l-9 -23
-23 23 c-21 22 -22 26 -8 48 9 15 12 35 7 57 -5 31 -4 34 16 31 15 -1 24 5 28
18 10 34 62 95 82 95 11 0 30 17 46 42 l26 43 9 -27 c8 -23 4 -32 -29 -67z
m-143 -362 c0 -10 16 -34 34 -53 28 -27 32 -36 20 -40 -26 -10 -34 -7 -46 19
-7 16 -19 25 -34 25 -28 0 -33 7 -40 64 -6 42 -5 46 17 54 21 8 26 5 36 -21 7
-16 13 -38 13 -48z"/>
<path d="M5672 5477 c-12 -13 -19 -27 -15 -30 3 -4 1 -18 -6 -30 -11 -20 -10
-30 8 -62 23 -43 37 -55 65 -55 11 0 28 -8 38 -17 18 -16 21 -16 64 7 25 14
50 33 55 42 5 9 21 18 36 20 19 2 29 10 33 28 10 40 -2 67 -44 95 -39 27 -66
27 -66 1 0 -8 -10 -14 -22 -14 -13 0 -35 -3 -50 -7 -22 -6 -27 -4 -30 16 -4
33 -38 36 -66 6z m38 -27 c0 -5 -4 -10 -10 -10 -5 0 -10 5 -10 10 0 6 5 10 10
10 6 0 10 -4 10 -10z m208 -49 c3 -29 1 -31 -27 -31 -16 0 -34 -6 -38 -13 -4
-7 -21 -21 -36 -30 -22 -14 -32 -16 -42 -7 -7 6 -22 10 -32 8 -14 -2 -17 2
-15 20 2 16 -2 22 -17 22 -11 0 -22 4 -25 8 -3 5 8 6 24 4 22 -3 29 1 35 17 6
20 16 25 42 22 6 -1 14 3 18 9 3 5 17 7 29 4 16 -4 25 0 30 11 10 28 50 -5 54
-44z"/>
<path d="M6044 4856 c-5 -20 -12 -26 -33 -26 -37 0 -41 -6 -29 -46 7 -25 6
-39 -3 -50 -9 -11 -9 -17 1 -29 19 -23 53 -18 99 16 33 24 42 35 37 52 -3 11
2 33 12 49 20 34 10 46 -41 55 -33 5 -37 3 -43 -21z m66 -13 c0 -2 -5 -14 -12
-26 -7 -12 -11 -31 -10 -42 1 -13 -10 -28 -34 -42 -19 -13 -38 -23 -42 -23 -4
0 -7 21 -7 47 1 45 3 48 33 57 20 6 32 15 32 27 0 12 6 16 20 12 11 -3 20 -7
20 -10z"/>
<path d="M10436 4387 c-14 -11 -18 -22 -14 -53 5 -41 -8 -94 -23 -94 -4 0 -13
-17 -19 -37 -5 -21 -13 -43 -17 -49 -9 -13 -67 -44 -83 -44 -18 0 -40 -27 -40
-49 0 -15 -6 -21 -23 -21 -15 0 -28 -9 -34 -23 -13 -28 1 -59 22 -51 10 4 15
0 15 -14 0 -11 7 -25 15 -32 8 -7 15 -19 15 -26 0 -8 5 -14 10 -14 6 0 10 9
10 19 0 11 5 23 10 26 6 3 10 19 10 34 0 25 5 30 36 36 24 4 38 13 41 26 3 10
12 19 20 19 8 0 17 9 20 21 5 16 11 19 30 14 19 -4 31 1 51 22 23 24 27 36 25
83 -1 30 3 70 9 88 8 26 6 38 -8 59 -9 15 -17 36 -18 47 -1 26 -33 32 -60 13z
m34 -28 c0 -6 9 -22 19 -35 16 -21 18 -30 9 -55 -6 -17 -8 -53 -5 -80 5 -38 3
-51 -8 -55 -8 -3 -17 -14 -20 -25 -5 -15 -10 -17 -25 -9 -25 13 -50 2 -50 -21
0 -23 -16 -25 -24 -3 -6 16 -39 16 -78 -1 -11 -4 -18 -3 -18 4 0 6 7 11 15 11
21 0 84 42 116 77 30 32 41 74 42 151 0 36 4 52 14 52 7 0 13 -5 13 -11z
m-123 -295 c-3 -3 -12 -4 -19 -1 -8 3 -5 6 6 6 11 1 17 -2 13 -5z m-67 -24 c0
-5 -7 -10 -16 -10 -8 0 -12 5 -9 10 3 6 10 10 16 10 5 0 9 -4 9 -10z m70 -10
c0 -5 -4 -10 -9 -10 -5 0 -16 -3 -25 -6 -11 -4 -16 -1 -16 10 0 10 9 16 25 16
14 0 25 -4 25 -10z m-100 -19 c0 -5 -11 -11 -25 -13 -24 -5 -32 2 -18 15 9 10
43 8 43 -2z m15 -54 c0 -26 -20 -25 -23 2 -3 16 1 22 10 19 7 -3 13 -12 13
-21z"/>
<path d="M3708 3602 c-39 -23 -36 -44 5 -41 17 2 46 -3 62 -11 17 -7 49 -22
72 -32 23 -11 43 -24 45 -29 2 -6 27 -12 56 -12 34 -1 52 -6 52 -14 0 -7 -5
-13 -11 -13 -6 0 -9 -10 -7 -22 3 -20 11 -24 71 -31 57 -7 72 -6 86 7 10 9 23
16 29 16 16 0 15 33 0 48 -7 7 -22 12 -34 12 -13 0 -26 5 -29 10 -4 6 -23 7
-45 4 -31 -5 -41 -3 -46 9 -3 9 -19 19 -35 22 -17 4 -35 15 -42 26 -6 10 -23
19 -37 19 -14 0 -45 11 -69 25 -50 29 -85 31 -123 7z m84 -9 c5 -12 76 -43 96
-43 10 0 25 -9 35 -20 9 -11 26 -20 37 -20 12 0 19 -4 16 -8 -9 -14 -67 -1
-78 18 -6 9 -18 15 -27 13 -9 -2 -25 5 -35 16 -11 12 -29 21 -41 21 -13 0 -28
7 -35 15 -10 12 -9 15 8 15 11 0 22 -3 24 -7z m336 -136 c29 7 28 -12 -1 -31
-18 -13 -30 -13 -60 -4 -44 13 -54 49 -12 40 17 -3 25 0 25 9 1 10 4 9 14 -3
8 -11 20 -15 34 -11z"/>
<path d="M9927 2979 c-8 -5 -17 -19 -21 -32 -6 -26 -133 -107 -167 -107 -10 0
-26 -11 -35 -25 -14 -22 -14 -26 0 -47 9 -12 16 -41 16 -64 0 -47 17 -67 53
-62 13 1 32 -3 40 -11 9 -7 24 -11 32 -7 9 3 18 -1 21 -9 9 -24 43 -18 48 8
18 94 21 102 59 126 40 26 46 41 22 61 -22 19 -18 51 11 81 18 18 24 33 20 47
-8 24 -77 53 -99 41z m43 -41 c18 -19 18 -23 5 -38 -21 -23 -19 -80 3 -97 16
-13 16 -14 -2 -26 -50 -32 -67 -54 -72 -92 -9 -65 -13 -71 -28 -50 -8 11 -19
16 -30 12 -10 -4 -19 -1 -23 9 -4 11 -16 14 -42 12 l-36 -3 -2 50 c-1 27 -6
51 -12 53 -6 2 -11 12 -11 21 0 12 13 22 40 30 21 6 45 17 52 24 7 7 31 22 52
33 23 12 47 34 55 52 19 38 24 39 51 10z"/>
<path d="M10415 2723 c-11 -3 -24 -9 -29 -14 -14 -13 20 -46 54 -52 15 -4 31
-14 34 -24 6 -16 55 -52 114 -82 24 -13 28 -32 10 -60 -6 -10 -8 -26 -5 -35 6
-14 11 -15 28 -5 18 9 30 6 70 -15 33 -19 56 -25 73 -20 27 6 35 29 14 37 -7
3 1 6 17 6 38 1 69 -20 84 -58 9 -20 22 -31 43 -35 45 -9 78 -7 78 4 0 15 33
12 55 -4 18 -13 45 -11 45 3 0 12 -69 41 -98 41 -18 0 -41 12 -65 35 -34 32
-36 37 -22 51 8 9 15 18 15 21 0 12 -88 91 -110 98 -14 4 -41 19 -62 32 -20
14 -43 23 -50 20 -7 -2 -29 4 -49 14 -40 20 -103 16 -127 -7 -16 -17 -45 -6
-37 14 12 32 -24 48 -80 35z m55 -33 c0 -23 -1 -24 -34 -9 -30 14 -25 29 10
29 17 0 24 -5 24 -20z m174 -25 c11 -8 32 -15 46 -15 53 0 209 -102 210 -137
0 -7 -7 -16 -17 -21 -14 -8 -10 -16 28 -53 24 -23 47 -43 51 -43 3 -1 10 -5
15 -10 5 -5 -2 -6 -17 -3 -14 4 -33 7 -42 7 -10 0 -18 7 -18 15 0 26 -47 62
-97 74 -55 14 -75 3 -55 -29 16 -26 5 -25 -43 5 -22 13 -48 25 -57 25 -14 0
-18 8 -18 33 0 35 -19 59 -55 71 -11 4 -33 18 -50 31 -28 23 -29 25 -8 25 12
0 26 6 30 14 7 12 30 20 68 24 6 1 19 -5 29 -13z"/>
<path d="M10714 2343 c-3 -16 -15 -58 -25 -94 -10 -36 -19 -76 -19 -87 0 -33
-15 -34 -62 -5 -24 16 -52 33 -63 39 -30 17 -25 40 8 36 26 -3 27 -2 23 40 -3
24 -5 49 -5 57 -1 10 -10 12 -34 8 -18 -3 -50 1 -72 9 -51 18 -56 17 -53 -2 2
-12 -6 -17 -27 -20 -32 -3 -65 -35 -65 -64 0 -28 -22 -41 -44 -24 -32 23 -60
16 -93 -21 -21 -23 -37 -33 -47 -29 -10 4 -16 1 -16 -9 0 -10 -7 -13 -18 -10
-14 3 -20 -6 -30 -42 -8 -30 -20 -49 -35 -56 -12 -5 -33 -16 -47 -25 -14 -8
-35 -12 -48 -9 -13 3 -29 -1 -38 -10 -9 -8 -24 -15 -35 -15 -12 0 -28 -14 -40
-35 -12 -19 -25 -35 -29 -35 -8 0 -14 -21 -25 -87 -3 -17 -1 -43 5 -57 5 -14
6 -28 1 -30 -9 -6 -8 -30 2 -61 7 -22 17 -67 22 -103 2 -13 -3 -39 -11 -57
-21 -52 -18 -88 11 -115 25 -24 26 -24 58 -7 18 10 40 15 49 12 8 -3 22 0 29
7 8 7 42 14 79 16 53 2 69 7 90 27 21 20 33 24 57 19 20 -4 43 -1 62 9 26 13
35 13 76 -1 49 -16 59 -29 70 -94 4 -28 11 -38 25 -38 10 0 20 6 23 13 3 7 13
2 27 -16 14 -18 29 -27 40 -24 14 4 19 -4 24 -37 4 -22 8 -48 8 -56 2 -32 82
-74 108 -58 12 8 25 6 46 -5 27 -14 31 -14 53 4 14 11 34 19 45 18 44 -3 48 2
62 64 2 10 18 38 34 62 17 24 30 48 30 53 0 5 16 30 37 54 41 52 86 158 85
203 -2 77 -13 136 -35 181 -36 71 -54 114 -67 157 -6 20 -18 37 -25 37 -19 0
-25 12 -35 75 -5 31 -16 62 -25 71 -8 8 -15 26 -15 38 0 13 -8 34 -18 47 -10
13 -26 43 -36 67 -22 48 -43 54 -52 15z m-201 -28 c33 0 37 -3 37 -27 0 -20
-6 -27 -22 -30 -16 -2 -24 -11 -26 -30 -3 -22 4 -31 40 -53 24 -15 55 -35 70
-46 50 -35 72 -18 90 66 5 22 10 45 11 50 2 6 7 25 11 43 7 31 26 45 26 19 0
-7 11 -29 25 -49 14 -20 25 -45 25 -55 0 -10 9 -31 20 -48 11 -16 20 -47 20
-67 0 -30 6 -42 30 -60 17 -12 30 -31 30 -42 0 -11 20 -62 45 -113 25 -50 45
-105 45 -120 0 -15 5 -45 10 -65 9 -30 7 -45 -9 -80 -10 -24 -22 -55 -25 -70
-4 -15 -20 -41 -36 -58 -16 -17 -39 -50 -51 -73 -12 -23 -31 -55 -42 -71 -11
-15 -23 -42 -26 -60 -6 -27 -12 -31 -41 -34 -19 -2 -43 -10 -52 -19 -15 -13
-20 -13 -47 3 -23 13 -34 15 -42 7 -8 -8 -19 -8 -42 2 -23 10 -34 23 -44 56
-7 24 -10 52 -7 62 4 13 0 20 -15 24 -25 6 -35 34 -26 73 8 37 -11 41 -27 5
-6 -14 -17 -25 -23 -25 -7 0 -18 -7 -25 -15 -16 -20 -24 -11 -26 27 -2 41 -35
82 -70 89 -16 3 -28 10 -26 17 3 17 -24 15 -52 -4 -14 -8 -47 -16 -75 -18 -31
-1 -57 -9 -69 -19 -12 -11 -42 -19 -81 -22 -34 -3 -71 -9 -81 -15 -10 -5 -30
-10 -44 -10 -15 0 -35 -5 -45 -12 -15 -9 -23 -9 -35 1 -20 17 -20 35 1 89 17
44 14 78 -13 185 -5 20 -2 31 10 40 12 9 15 20 10 45 -4 17 -10 32 -15 32 -14
0 -10 68 4 77 8 4 20 22 28 38 9 19 23 31 39 33 14 2 30 8 37 13 6 6 29 11 51
13 21 2 48 11 59 22 11 10 32 28 46 38 15 10 27 28 27 39 0 16 3 18 12 9 20
-20 38 -14 38 12 0 34 76 99 104 90 12 -4 25 -13 29 -20 4 -8 13 -14 20 -14
13 0 47 54 47 74 0 26 38 49 71 42 26 -5 30 -3 25 10 -5 13 -2 14 11 8 10 -4
35 -8 56 -9z"/>
<path d="M7794 2338 c-4 -6 -10 -25 -13 -41 -7 -32 -20 -42 -63 -51 -15 -4
-30 -15 -33 -26 -4 -11 -15 -20 -27 -20 -18 0 -20 -4 -14 -40 5 -33 2 -47 -21
-81 -23 -35 -25 -44 -16 -72 6 -18 14 -49 17 -69 6 -34 28 -58 54 -58 5 0 22
19 38 43 15 23 36 52 47 63 10 12 24 51 32 86 8 37 26 83 44 110 33 48 39 95
21 142 -10 28 -52 37 -66 14z m49 -73 c2 -32 -4 -49 -20 -67 -27 -30 -48 -81
-57 -140 -4 -25 -14 -52 -23 -60 -9 -7 -26 -30 -39 -50 -30 -48 -54 -50 -54
-5 -1 17 -7 43 -15 57 -19 33 -19 34 11 69 21 25 25 39 22 71 -2 27 0 40 9 40
7 0 20 11 29 25 9 14 26 25 37 25 29 0 57 29 57 60 0 14 5 31 12 38 17 17 29
-7 31 -63z"/>
</g>
</svg>
