<?xml version="1.0" standalone="no"?>
<!DOCTYPE svg PUBLIC "-//W3C//DTD SVG 20010904//EN"
 "http://www.w3.org/TR/2001/REC-SVG-20010904/DTD/svg10.dtd">
<svg version="1.0" xmlns="http://www.w3.org/2000/svg"
 width="1280.000000pt" height="744.000000pt" viewBox="0 0 1280.000000 744.000000"
 preserveAspectRatio="xMidYMid meet">
<metadata>
Created by potrace 1.15, written by Peter Selinger 2001-2017
</metadata>
<g transform="translate(0.000000,744.000000) scale(0.100000,-0.100000)"
fill="#f2f2f2" stroke="none">
<path d="M11238 7426 c-14 -6 -36 -23 -47 -38 -12 -15 -35 -29 -51 -33 -30 -7
-90 -68 -90 -92 0 -7 -3 -13 -8 -13 -4 0 -13 -23 -20 -52 -15 -66 -1 -76 98
-70 l25 1 -25 -19 c-28 -22 -46 -25 -56 -9 -3 6 -18 9 -33 6 -16 -3 -33 1 -43
10 -16 14 -21 14 -55 -2 -21 -10 -49 -28 -63 -40 -14 -12 -38 -27 -53 -32 -16
-5 -45 -23 -65 -41 -21 -18 -62 -54 -92 -81 -30 -27 -80 -61 -110 -76 -55 -27
-220 -178 -220 -201 0 -6 -13 -36 -30 -67 -16 -31 -30 -65 -30 -75 0 -10 -11
-24 -25 -30 -14 -6 -25 -20 -25 -30 0 -10 -11 -28 -25 -40 -18 -16 -25 -32
-25 -57 0 -30 3 -35 24 -35 13 0 26 -6 29 -14 3 -8 15 -12 31 -9 40 8 116 -27
116 -53 0 -14 -8 -24 -22 -27 -13 -3 -44 -13 -69 -23 -40 -15 -49 -16 -63 -5
-15 12 -15 16 -1 31 13 15 12 19 -14 44 l-28 27 -27 -31 c-26 -32 -34 -64 -17
-74 5 -3 12 -27 16 -52 6 -43 4 -48 -24 -73 -16 -14 -31 -37 -33 -51 -2 -16
-10 -26 -23 -28 -29 -5 -45 -31 -45 -72 0 -24 -7 -43 -20 -55 -11 -10 -20 -28
-20 -39 0 -20 -15 -34 -70 -63 -23 -12 -28 -10 -67 29 l-42 41 -67 -6 c-63 -5
-68 -7 -105 -48 -68 -77 -99 -126 -99 -159 0 -23 -11 -43 -43 -77 -43 -45 -44
-45 -78 -33 -30 11 -40 10 -70 -6 -18 -10 -39 -17 -45 -16 -6 1 -19 -7 -29
-18 -18 -20 -45 -27 -45 -12 0 4 7 15 15 26 13 17 12 21 -11 39 l-25 20 -57
-25 c-64 -27 -86 -57 -86 -121 -1 -35 -3 -38 -26 -33 -15 2 -33 -2 -45 -12
-16 -13 -15 -11 3 9 48 55 22 68 -69 32 -52 -20 -75 -35 -85 -55 -16 -32 -42
-48 -77 -48 -13 0 -32 -9 -43 -21 -16 -18 -17 -22 -4 -30 46 -27 46 -27 22
-52 -28 -30 -30 -82 -3 -97 12 -6 22 -6 25 -1 6 10 76 -47 76 -61 0 -4 -10 -8
-23 -8 -21 0 -77 -46 -77 -62 0 -4 8 -9 18 -11 14 -4 14 -5 -3 -6 -11 -1 -37
-6 -57 -12 -39 -10 -68 -48 -68 -87 0 -28 -62 -39 -92 -17 -13 8 -35 15 -50
15 -24 0 -28 -4 -28 -28 0 -15 5 -33 12 -40 11 -11 48 -115 48 -137 0 -5 -21
-11 -48 -12 -39 -2 -53 3 -84 28 -20 16 -44 29 -52 29 -8 0 -16 10 -18 23 -2
18 -9 22 -33 20 -30 -2 -30 -2 -8 15 35 28 20 103 -19 90 -19 -7 -61 48 -53
71 6 19 -14 29 -73 36 -13 2 -29 8 -37 15 -10 8 -18 7 -34 -7 -12 -9 -21 -24
-21 -31 0 -8 -6 -12 -12 -9 -7 2 -21 0 -31 -5 -14 -7 -24 -5 -37 7 -10 9 -25
15 -32 12 -7 -2 -21 2 -30 10 -15 13 -18 11 -27 -24 -15 -51 -14 -57 9 -100
27 -52 26 -71 -7 -79 -16 -4 -41 -18 -56 -31 -36 -29 -45 -29 -59 2 -12 27
-28 24 -28 -6 0 -17 -6 -20 -32 -17 -21 2 -33 8 -33 18 -1 8 -5 23 -11 33 -9
16 -14 17 -70 3 -32 -8 -72 -17 -87 -20 -16 -4 -48 -25 -73 -48 -41 -38 -44
-39 -44 -18 0 13 -8 32 -17 42 -17 19 -18 19 -43 -12 -23 -28 -28 -30 -53 -21
-16 6 -45 11 -66 11 -36 0 -37 1 -33 29 2 16 22 50 44 77 44 54 68 95 68 119
0 8 5 24 12 35 10 16 9 24 -10 49 -12 17 -22 43 -22 59 0 29 -47 86 -68 80 -5
-2 -21 13 -34 32 -18 25 -31 34 -48 32 -12 -1 -28 2 -35 8 -8 6 -18 5 -31 -5
-10 -8 -29 -15 -41 -15 -12 0 -34 -5 -48 -12 -22 -10 -29 -8 -49 11 -21 20
-31 22 -68 16 l-43 -7 23 24 c17 19 21 31 16 57 -5 21 -12 31 -23 30 -9 -1
-28 1 -43 5 -22 6 -34 2 -67 -25 -61 -49 -102 -174 -69 -207 18 -18 -7 -32
-59 -32 -35 0 -42 -3 -40 -20 1 -11 8 -22 17 -25 11 -5 6 -10 -17 -20 -18 -8
-33 -19 -33 -25 0 -5 -12 -10 -26 -10 -21 0 -24 4 -19 20 5 17 2 20 -25 20
-17 0 -33 -6 -36 -14 -3 -8 -25 -17 -49 -21 -48 -7 -100 -42 -77 -52 20 -8
-36 -39 -86 -48 -23 -4 -44 -11 -48 -16 -3 -5 -20 -16 -39 -23 -18 -8 -38 -24
-45 -35 -7 -14 -21 -21 -39 -21 -30 0 -33 -8 -43 -105 -1 -11 -14 -30 -28 -42
l-25 -23 33 -28 c17 -16 32 -31 32 -34 0 -15 -180 -34 -259 -28 -53 4 -69 2
-88 -13 -24 -19 -30 -55 -14 -86 7 -12 5 -31 -4 -59 -14 -39 -13 -43 12 -81
15 -23 30 -41 35 -41 8 0 38 -53 38 -70 0 -18 -36 -11 -56 11 -10 12 -18 31
-17 42 3 32 -75 87 -111 80 -23 -5 -27 -2 -24 13 2 11 -7 24 -24 33 -27 15
-29 15 -60 -17 -30 -30 -31 -34 -16 -43 10 -5 21 -10 25 -10 9 1 25 -51 18
-58 -3 -2 -18 7 -33 22 -26 25 -29 26 -50 11 -21 -14 -22 -14 -17 13 2 15 7
58 10 96 l6 67 -27 0 c-23 0 -25 2 -13 16 11 14 9 19 -11 34 -25 19 -25 19
-32 -8 -5 -17 -3 -32 6 -42 17 -19 14 -113 -3 -134 -8 -9 -23 -16 -35 -16 -13
0 -42 -20 -69 -48 -42 -43 -46 -50 -33 -62 9 -7 16 -24 16 -38 0 -13 5 -42 12
-63 9 -32 9 -42 -4 -56 -27 -32 -68 -124 -68 -154 0 -16 -5 -38 -11 -48 -19
-29 -3 -71 25 -71 14 0 26 -5 28 -12 3 -8 13 -7 36 4 29 15 34 15 72 -4 45
-23 80 -61 80 -89 0 -36 -18 -27 -41 21 -24 49 -24 49 -75 50 -44 0 -54 -4
-83 -34 -32 -33 -33 -37 -27 -90 l7 -55 -45 -49 c-25 -27 -46 -58 -46 -69 0
-14 -11 -25 -32 -33 -18 -7 -42 -16 -53 -20 -11 -5 -30 -12 -42 -15 -14 -4
-23 -14 -23 -26 0 -23 -22 -25 -40 -4 -7 8 -21 15 -31 15 -25 0 -77 32 -96 59
-22 32 -9 36 27 10 26 -19 34 -21 50 -11 11 6 26 9 35 6 29 -12 61 6 92 50 18
26 49 53 70 63 33 15 38 23 41 55 2 25 10 41 26 52 34 22 38 60 10 87 -29 27
-30 55 -4 137 11 35 20 76 20 91 0 14 11 42 24 62 14 20 30 64 36 98 10 55 9
65 -5 81 -21 23 -13 54 25 95 15 17 31 46 35 65 4 19 12 41 17 48 7 8 7 26 -2
57 -11 40 -16 45 -41 45 -15 0 -31 5 -34 10 -3 6 -16 10 -29 10 -13 0 -31 9
-41 20 -16 18 -19 18 -43 2 -14 -9 -40 -49 -62 -97 -40 -86 -76 -125 -137
-147 -27 -10 -41 -23 -54 -53 -16 -34 -16 -42 -4 -51 12 -9 12 -16 0 -50 -8
-21 -14 -45 -15 -53 0 -8 -14 -26 -31 -41 -31 -25 -31 -26 -16 -57 9 -17 24
-33 33 -37 12 -5 15 -14 10 -39 -4 -23 0 -42 15 -66 18 -31 19 -35 5 -43 -9
-5 -16 -20 -16 -33 0 -13 -5 -27 -11 -31 -14 -8 -29 14 -29 42 0 12 -22 50
-50 85 -27 35 -58 77 -67 93 -29 48 -164 191 -178 188 -7 -1 -18 5 -25 13 -8
10 -21 13 -37 9 -22 -6 -24 -5 -15 13 7 12 7 25 1 34 -5 7 -9 24 -9 36 0 31
-21 73 -36 73 -7 0 -25 -5 -39 -12 -25 -11 -26 -15 -20 -57 4 -24 13 -50 21
-58 8 -8 14 -19 14 -24 0 -5 9 -9 20 -9 11 0 20 -4 20 -10 0 -5 -4 -10 -10
-10 -5 0 -10 -25 -10 -55 0 -48 -2 -55 -20 -55 -11 0 -20 -7 -20 -15 0 -9 -9
-15 -25 -15 -14 0 -28 -7 -31 -15 -4 -8 -10 -15 -15 -15 -16 0 -10 25 11 43
11 9 20 23 20 30 0 19 -36 50 -49 43 -5 -4 -31 -10 -58 -15 -44 -9 -49 -7 -82
21 -35 31 -53 33 -147 13 -36 -8 -46 1 -37 33 4 15 13 22 30 22 23 0 24 3 18
32 -10 45 -12 48 -44 48 -43 0 -91 -20 -91 -38 -1 -14 -3 -14 -16 3 -9 12 -28
20 -52 22 -161 9 -222 10 -222 2 0 -4 -7 -6 -15 -3 -8 4 -31 3 -50 0 -26 -5
-35 -12 -35 -26 0 -32 -32 -42 -78 -24 -36 15 -40 20 -46 61 -10 78 -9 81 30
89 29 5 40 2 60 -17 l24 -23 22 21 c14 14 22 39 26 71 4 42 0 56 -19 84 -56
80 -84 108 -110 108 -25 0 -26 -1 -21 -53 4 -49 2 -55 -22 -70 -14 -10 -26
-24 -26 -32 0 -9 -11 -20 -24 -26 -26 -12 -46 -47 -46 -80 0 -64 -80 -113
-110 -67 -8 12 -25 34 -36 48 -21 24 -24 24 -68 12 -39 -10 -51 -10 -74 2 -20
11 -33 11 -47 4 -10 -6 -40 -10 -67 -9 l-48 1 0 -39 c0 -22 -6 -44 -15 -51 -9
-7 -14 -22 -13 -34 2 -16 -2 -20 -17 -18 -11 2 -24 10 -30 19 -5 9 -20 28 -32
43 -15 19 -27 53 -35 104 -11 73 -13 76 -38 76 -41 0 -70 -38 -70 -93 0 -25 4
-49 10 -52 18 -11 11 -50 -11 -64 -20 -12 -25 -10 -57 23 -33 32 -35 37 -23
60 11 20 11 32 -2 69 -14 42 -14 47 3 62 10 9 21 33 25 53 8 42 40 82 67 82
35 0 83 114 60 143 -13 16 -3 77 13 77 7 0 16 -16 19 -35 9 -46 69 -177 90
-194 9 -7 16 -28 16 -47 0 -37 33 -68 110 -103 59 -27 172 -20 208 13 65 58
106 203 69 244 -20 23 -29 72 -31 179 -1 75 -4 93 -24 117 -12 16 -22 39 -22
53 0 13 -7 26 -15 29 -8 4 -15 16 -15 28 0 11 -13 32 -29 46 -16 14 -31 39
-35 58 -5 30 6 44 19 22 3 -5 15 -15 26 -21 20 -10 20 -8 13 38 -8 53 -16 63
-58 63 -25 0 -28 2 -22 27 7 26 7 26 -18 9 -18 -11 -31 -13 -43 -7 -10 5 -41
14 -69 21 -50 11 -54 10 -128 -27 l-76 -37 0 -54 c0 -29 -7 -66 -15 -82 -14
-28 -20 -30 -69 -30 -50 0 -56 -3 -90 -40 -20 -22 -36 -47 -36 -57 0 -9 -16
-44 -35 -79 -25 -44 -40 -61 -50 -58 -8 3 -34 -8 -57 -25 -23 -17 -50 -31 -60
-31 -14 0 -18 -8 -18 -35 0 -22 -6 -38 -15 -41 -8 -4 -15 -18 -15 -34 0 -36
-29 -60 -72 -60 -35 0 -35 0 -42 -52 -3 -29 -6 -72 -6 -96 0 -65 -16 -69 -312
-73 -137 -2 -248 -6 -248 -8 0 -3 10 -15 22 -28 18 -19 21 -33 19 -75 -2 -43
1 -54 19 -68 15 -11 21 -24 18 -41 l-4 -24 -12 28 c-7 17 -26 34 -47 43 -19 8
-35 18 -35 23 0 4 -12 13 -27 20 -25 11 -30 10 -48 -11 -11 -13 -33 -24 -50
-25 -72 -5 -104 -16 -129 -44 -15 -16 -32 -29 -40 -29 -8 0 -19 -13 -25 -30
-7 -22 -16 -30 -34 -30 -29 0 -57 -29 -57 -57 0 -15 -12 -27 -40 -40 -33 -15
-40 -22 -37 -41 3 -16 -7 -36 -29 -64 -40 -47 -41 -58 -13 -108 18 -32 20 -43
11 -69 -10 -27 -8 -31 11 -37 35 -10 57 -35 57 -63 -1 -28 -47 -85 -77 -95
-13 -4 -27 -32 -47 -94 -16 -48 -32 -94 -37 -104 -5 -11 -3 -21 7 -29 16 -13
12 -74 -6 -93 -15 -16 -55 3 -72 34 -21 37 -56 38 -74 2 -6 -13 -25 -38 -42
-55 -51 -54 -56 -73 -31 -108 16 -23 27 -29 43 -25 15 4 26 -1 33 -14 7 -10
22 -20 35 -22 52 -7 60 -121 10 -143 -12 -5 -25 -17 -27 -26 -3 -10 -13 -20
-21 -23 -13 -5 -11 -13 11 -49 31 -54 32 -84 1 -126 -26 -35 -25 -64 4 -84 9
-7 20 -22 24 -34 4 -12 27 -38 52 -58 43 -36 45 -39 43 -85 -2 -43 1 -53 34
-89 20 -23 37 -47 37 -55 0 -7 7 -19 15 -26 8 -7 15 -22 15 -34 0 -12 5 -27
11 -33 20 -20 0 -53 -33 -53 -38 0 -98 -54 -99 -90 0 -15 -11 -34 -30 -49
l-30 -24 -39 38 c-31 30 -46 37 -83 40 -48 3 -102 -21 -113 -50 -6 -15 31 -54
52 -55 5 0 19 -7 30 -16 19 -15 19 -15 -2 -9 -11 3 -41 7 -66 9 -25 2 -57 11
-71 21 -42 27 -61 14 -53 -40 l7 -45 -54 0 c-41 0 -61 -5 -82 -22 l-28 -22
-18 22 c-20 26 -51 28 -70 6 -21 -26 -20 -109 2 -138 10 -13 19 -37 19 -53 0
-16 9 -46 20 -68 15 -30 20 -59 20 -123 0 -82 10 -122 31 -122 26 0 119 -131
119 -167 0 -7 17 -24 38 -38 42 -28 92 -96 92 -125 0 -10 7 -23 15 -30 8 -7
15 -27 15 -45 0 -36 21 -59 62 -69 15 -3 35 -17 44 -31 9 -14 23 -25 30 -25 8
0 14 -5 14 -12 0 -6 7 -19 16 -29 13 -15 14 -23 4 -51 -11 -29 -10 -38 9 -68
11 -19 21 -45 21 -58 0 -12 6 -25 13 -28 8 -3 22 -41 33 -86 14 -61 24 -82 39
-88 28 -11 127 -5 153 9 24 13 29 49 23 188 -3 60 1 79 20 112 12 23 26 41 31
41 4 0 8 5 8 12 0 6 7 19 15 28 9 10 18 40 22 69 5 41 2 55 -12 71 -28 31 -13
47 53 55 50 6 65 12 98 44 l38 38 31 -18 c40 -25 185 -27 209 -3 20 20 20 21
-4 51 -28 35 -27 58 1 41 17 -11 22 -10 35 7 11 15 13 39 8 110 -6 84 -9 92
-40 125 -31 34 -32 37 -22 76 10 37 9 44 -11 70 l-23 29 27 22 c14 13 35 23
46 23 30 0 59 18 59 37 0 25 50 73 76 73 12 0 31 11 42 25 11 14 27 25 35 25
13 0 15 -9 10 -47 -6 -55 11 -79 61 -85 25 -3 32 3 51 37 21 36 27 40 66 43
24 2 52 11 62 20 15 13 23 14 52 3 38 -13 70 -8 98 17 25 22 51 5 57 -39 5
-32 7 -34 46 -34 41 0 74 -17 74 -39 0 -6 16 -20 37 -31 31 -17 39 -30 60 -95
20 -61 22 -78 12 -96 -6 -13 -9 -30 -6 -38 8 -21 43 -20 57 2 9 16 11 16 27
-4 10 -12 23 -30 29 -40 12 -21 78 -23 114 -4 17 9 27 7 53 -9 18 -11 37 -29
44 -40 11 -17 16 -18 47 -9 42 13 66 -1 66 -38 0 -13 16 -46 36 -74 30 -42 41
-50 68 -50 18 0 37 5 42 10 7 7 17 0 32 -20 20 -26 29 -30 73 -30 46 0 55 4
85 37 39 42 40 46 19 63 -8 7 -15 18 -15 25 0 7 -16 32 -35 54 -39 48 -37 70
6 69 40 -1 61 21 62 68 2 36 5 39 33 42 20 2 36 -4 49 -18 23 -25 47 -26 70 0
18 20 18 21 -11 53 -29 31 -32 45 -25 115 2 19 35 14 74 -12 29 -20 51 -25
128 -29 52 -3 114 -10 139 -17 58 -15 87 -15 116 1 18 9 30 10 49 1 14 -7 52
-12 83 -12 31 0 63 -4 70 -8 16 -10 117 9 134 26 16 16 40 15 64 -3 10 -8 31
-15 45 -15 15 0 29 -6 32 -14 3 -7 21 -16 40 -20 23 -4 37 -13 40 -27 7 -26
-3 -90 -16 -106 -5 -7 -6 -24 -3 -37 7 -29 54 -43 85 -27 25 14 34 1 25 -33
-5 -22 -2 -27 21 -36 19 -7 31 -7 40 0 8 7 22 6 44 -3 l32 -13 -24 -11 c-23
-11 -42 -58 -30 -76 3 -5 22 -7 42 -5 20 3 44 0 53 -6 13 -7 26 -6 53 7 20 9
42 17 49 17 7 0 21 9 31 20 12 13 31 20 55 20 22 0 48 8 62 20 24 18 38 18 38
-2 0 -5 -11 -13 -25 -18 -35 -13 -35 -57 0 -70 14 -5 34 -24 43 -42 9 -17 31
-47 48 -67 36 -42 54 -89 54 -141 0 -21 7 -43 15 -50 8 -7 15 -24 15 -39 0
-14 9 -41 20 -59 11 -18 20 -39 20 -47 0 -24 31 -109 46 -126 20 -22 63 -12
76 17 15 32 48 32 48 0 0 -31 52 -76 80 -69 11 3 26 0 34 -6 16 -14 71 -4 87
15 6 8 19 14 28 13 27 -1 106 -64 109 -87 2 -12 25 -44 52 -72 27 -28 50 -61
52 -73 2 -17 15 -26 58 -40 50 -16 58 -16 94 -2 21 9 39 15 41 13 1 -2 12 -22
25 -45 31 -56 75 -66 124 -28 23 17 45 25 73 25 25 0 46 6 53 16 8 8 28 21 47
29 18 8 33 21 33 29 0 9 8 16 19 16 10 0 25 8 32 17 24 29 102 73 130 73 18 0
28 6 32 20 3 13 14 20 30 20 13 0 30 7 37 15 17 20 24 19 60 -11 27 -23 34
-25 56 -15 39 17 50 14 104 -34 60 -54 97 -64 245 -71 l114 -6 51 44 c40 35
50 49 50 74 0 17 -7 37 -15 44 -8 7 -15 25 -15 40 0 15 -7 33 -15 40 -18 15
-10 56 16 86 11 11 19 25 19 30 0 6 13 23 29 38 28 27 31 27 52 12 13 -9 42
-16 65 -16 27 0 47 -6 58 -19 14 -16 23 -17 56 -9 79 20 133 -9 182 -101 20
-36 85 -70 135 -71 57 0 137 22 161 44 32 28 152 46 202 29 19 -7 61 -12 92
-12 52 -1 60 -4 79 -31 33 -43 68 -51 179 -40 184 20 182 19 225 61 22 21 56
45 75 53 49 20 120 84 120 107 0 23 63 95 100 114 23 12 31 11 67 -5 l40 -18
51 28 c47 26 57 27 114 20 99 -11 164 18 193 87 8 19 25 37 40 43 34 13 34 58
-1 110 -23 34 -25 44 -16 67 6 16 13 58 17 96 3 37 10 78 16 90 15 34 -4 97
-41 132 -26 25 -33 28 -50 17 -24 -15 -24 -13 -3 56 15 45 25 60 58 81 23 14
62 43 88 65 49 40 93 54 192 62 28 2 79 6 115 10 60 5 69 3 108 -22 23 -15 42
-34 42 -41 0 -8 13 -19 28 -26 44 -19 110 -77 116 -102 4 -16 16 -26 36 -30
30 -7 114 -81 143 -126 21 -34 71 -45 120 -24 19 8 38 19 42 25 8 13 120 13
169 -1 27 -8 41 -8 49 0 6 6 18 11 27 11 23 0 70 -52 70 -78 0 -15 12 -28 40
-42 51 -26 90 -26 97 0 3 11 10 20 17 20 6 0 35 16 63 35 46 31 52 38 47 63
-4 20 4 43 30 87 68 117 74 119 130 57 33 -37 38 -46 28 -60 -23 -32 -24 -43
-6 -63 22 -24 46 -85 48 -120 0 -14 6 -32 12 -40 14 -17 25 -69 28 -124 1 -22
7 -49 13 -61 17 -29 -8 -64 -46 -64 -37 0 -81 -35 -81 -64 0 -12 -11 -33 -25
-46 -35 -33 -34 -75 2 -92 15 -7 37 -28 48 -46 11 -19 39 -56 63 -83 46 -55
52 -83 27 -142 -22 -53 -19 -76 11 -87 46 -18 60 9 71 133 4 47 7 56 18 47 17
-14 35 -5 35 18 0 12 3 13 12 4 17 -17 38 -15 86 8 22 11 50 20 60 20 13 0 28
20 52 67 18 38 41 80 51 94 16 23 18 49 18 255 0 143 4 248 12 277 13 55 1
162 -32 274 -27 92 -41 199 -39 311 2 90 1 93 -29 128 -17 19 -38 51 -46 71
-18 44 -60 102 -134 186 -63 72 -78 105 -89 187 -10 71 -9 71 78 33 43 -18 66
-35 76 -55 9 -16 48 -64 88 -106 78 -83 115 -132 133 -174 7 -15 33 -38 62
-53 36 -20 59 -43 85 -84 19 -31 48 -69 65 -85 17 -17 31 -37 31 -46 0 -8 27
-42 60 -75 50 -50 63 -58 78 -49 26 17 25 36 -3 78 -14 21 -25 48 -23 59 4 26
52 41 90 28 49 -17 54 24 7 63 -34 29 -58 33 -78 14 -10 -11 -16 -9 -28 10 -9
12 -24 22 -34 22 -10 0 -21 5 -24 10 -3 6 -19 10 -34 10 -17 0 -43 13 -69 36
-33 28 -42 42 -42 67 0 18 -11 49 -25 69 -28 41 -35 108 -11 108 21 0 66 40
66 58 0 10 -16 25 -38 35 -56 27 -127 70 -146 90 -10 10 -34 27 -55 38 -20 11
-52 31 -71 45 -19 14 -47 28 -61 31 -34 6 -91 64 -122 123 -17 33 -31 46 -55
52 -18 5 -39 20 -48 33 -9 14 -25 25 -35 25 -10 0 -28 14 -41 30 -21 29 -91
60 -104 47 -4 -3 -3 -22 0 -42 6 -28 11 -35 30 -35 15 0 33 -13 50 -35 l27
-35 -24 0 c-21 0 -25 -6 -31 -40 -5 -31 -12 -43 -32 -50 -34 -13 -77 -13 -91
1 -7 7 -36 10 -75 7 -48 -3 -73 -11 -106 -32 l-42 -29 30 -55 c36 -67 36 -70
8 -74 -13 -2 -27 -13 -33 -26 -12 -27 -25 -29 -25 -3 0 11 -14 33 -31 51 -25
24 -34 28 -45 19 -16 -13 -19 -55 -4 -64 6 -3 10 -14 10 -23 -1 -21 -43 27
-66 76 -9 17 -19 32 -23 32 -4 0 -20 -14 -36 -30 -16 -16 -35 -30 -44 -30 -8
0 -22 -7 -32 -16 -10 -9 -23 -13 -28 -9 -14 8 -3 112 14 140 23 38 44 257 26
279 -15 18 -3 241 15 277 11 23 10 28 -9 47 -28 28 -29 92 -3 121 19 20 19 23
3 57 -30 63 -19 115 42 192 65 82 115 132 133 132 10 0 32 7 49 15 28 15 28
17 14 39 -16 24 -11 36 15 36 23 0 84 65 75 80 -5 8 -3 11 6 8 8 -3 24 4 36
14 l22 20 -21 28 c-26 36 -16 67 28 86 19 8 34 18 34 23 0 8 84 61 96 61 2 0
4 -12 4 -26 0 -32 21 -54 54 -54 21 0 27 7 37 43 7 23 21 49 32 58 17 14 19
24 14 62 -6 44 -5 46 21 49 20 2 28 9 30 28 2 14 9 30 16 35 7 6 15 22 18 38
5 24 2 27 -21 27 -14 0 -37 -9 -51 -20 -27 -20 -50 -12 -50 18 0 9 -9 25 -20
37 -14 15 -21 41 -26 95 -4 41 -13 84 -20 95 -8 11 -14 35 -14 55 0 24 -6 39
-20 48 -24 14 -28 76 -7 101 8 9 20 37 26 62 11 39 16 46 32 42 15 -4 23 2 32
26 11 30 27 42 27 21 0 -13 79 -100 91 -100 5 0 9 12 10 28 0 25 2 24 18 -13
l18 -40 13 41 c7 23 10 62 6 90 -15 127 -19 150 -27 158 -14 15 -11 26 6 26
10 0 15 10 15 30 0 24 -4 30 -22 30 -13 0 -42 18 -64 40 -37 34 -41 42 -35 71
7 37 31 52 31 19 0 -26 89 -117 123 -125 14 -4 37 -25 52 -48 22 -34 26 -48
20 -77 -4 -19 -9 -48 -12 -63 -3 -17 0 -34 10 -45 16 -18 87 -214 87 -241 0
-9 12 -34 27 -55 14 -22 36 -80 49 -130 19 -79 20 -93 8 -107 -9 -10 -12 -27
-8 -46 3 -18 1 -33 -5 -37 -6 -4 -11 -18 -11 -32 0 -17 6 -24 19 -24 21 0 51
-40 51 -68 0 -11 7 -25 15 -32 8 -7 15 -23 15 -36 0 -15 23 -49 65 -95 36 -39
65 -74 65 -79 0 -17 103 -73 187 -100 48 -16 95 -37 103 -47 23 -27 63 -51
153 -89 45 -20 91 -44 103 -55 11 -10 28 -19 38 -19 9 0 32 -11 50 -25 19 -14
46 -25 64 -25 21 0 37 -8 51 -26 l21 -27 0 54 c0 30 -7 81 -15 114 -8 33 -14
72 -15 86 0 20 -18 44 -68 91 -78 73 -84 85 -76 138 5 30 11 40 28 42 32 5 29
49 -4 58 -76 21 -121 69 -135 143 -6 36 -3 42 35 77 36 33 39 40 31 63 -14 37
-55 61 -90 54 -19 -4 -33 -1 -41 7 -6 8 -21 17 -34 20 -24 6 -66 65 -66 92 0
8 7 17 16 21 8 3 20 17 25 31 8 20 5 29 -12 49 -22 23 -72 32 -83 14 -16 -26
-106 30 -106 66 0 16 -68 90 -74 81 -24 -35 -44 -81 -40 -93 9 -23 -11 -18
-59 15 -49 33 -57 46 -57 92 0 25 -13 45 -60 94 -55 57 -59 65 -53 96 3 20 19
44 39 61 39 33 42 43 14 52 -11 4 -20 15 -20 26 0 11 -5 30 -11 42 -11 21 -11
21 7 6 10 -8 31 -20 47 -27 25 -11 27 -10 27 15 0 14 -9 41 -21 59 -17 28 -19
39 -10 70 7 25 7 42 0 50 -7 8 -2 23 15 49 14 20 28 45 31 56 8 23 46 34 73
20 16 -8 24 -6 42 15 l24 24 -31 33 c-32 33 -53 89 -53 141 0 15 -11 41 -25
57 -13 16 -27 46 -30 67 -4 20 -15 66 -26 101 -10 35 -19 87 -19 115 -1 28 -8
69 -16 91 -9 22 -17 50 -18 63 -2 12 -11 29 -22 37 -18 14 -18 14 4 15 16 0
26 9 34 30 6 19 19 32 34 36 19 5 24 13 24 39 0 18 -7 39 -16 46 -9 7 -20 24
-25 36 -7 19 -12 22 -27 14 -10 -6 -28 -7 -40 -4 -13 3 -33 -2 -48 -12 -14 -9
-28 -14 -31 -11 -4 3 -13 0 -21 -7 -12 -9 -16 -9 -19 1 -3 8 -26 12 -65 12
-52 0 -63 -3 -80 -25 -11 -14 -28 -25 -40 -25 -19 0 -19 0 2 35 19 31 20 40
10 87 -8 42 -21 64 -62 107 -49 50 -53 53 -90 47 -35 -6 -39 -4 -48 20 -6 15
-9 28 -8 29 10 8 88 11 101 4 11 -7 21 -2 37 18 18 23 21 36 16 74 -8 58 3 68
68 66 38 -2 51 2 60 17 36 60 55 80 86 90 28 9 36 18 47 54 7 26 9 52 4 65 -5
12 -7 33 -4 47 l4 25 -27 -27 -27 -27 -43 47 c-31 34 -43 42 -44 29 0 -14 -4
-16 -17 -9 -11 7 -17 23 -17 48 -1 33 -4 38 -20 36 -16 -3 -18 -1 -8 10 9 12
7 19 -13 38 -14 13 -25 34 -25 47 0 26 -3 26 -42 9z m32 -986 c0 -5 -9 -10
-21 -10 -11 0 -17 5 -14 10 3 6 13 10 21 10 8 0 14 -4 14 -10z m-20 -50 c0 -5
-5 -10 -11 -10 -5 0 -7 5 -4 10 3 6 8 10 11 10 2 0 4 -4 4 -10z m-4334 -1318
c-22 -5 -30 3 -21 18 5 8 11 7 22 -2 15 -12 14 -13 -1 -16z m240 -488 c-5 -19
-2 -24 14 -24 31 0 24 -17 -19 -44 -22 -14 -42 -34 -46 -45 -3 -10 -18 -21
-33 -23 -15 -3 -36 -9 -47 -14 -18 -7 -18 -6 3 20 12 16 22 34 22 42 0 7 14
15 30 19 21 5 30 12 30 27 0 26 31 78 43 71 5 -3 6 -16 3 -29z m-1820 -495 c8
-8 14 -20 14 -26 0 -6 6 -13 13 -16 8 -3 7 -7 -5 -12 -9 -4 -27 1 -42 10 -21
14 -26 25 -26 59 0 53 12 67 24 29 5 -15 15 -35 22 -44z m5833 -1451 c6 -7 24
-29 41 -49 35 -42 39 -69 10 -69 -12 0 -26 12 -35 30 -10 19 -23 30 -36 30
-18 0 -20 2 -8 16 10 12 10 20 1 35 -10 15 -9 19 3 19 8 0 19 -6 24 -12z"/>
<path d="M10159 7085 c-32 -21 -37 -30 -43 -77 -6 -47 -3 -60 19 -100 29 -53
58 -65 86 -37 10 10 20 22 20 27 17 96 13 182 -9 198 -23 18 -31 17 -73 -11z"/>
<path d="M4700 6268 c-9 -18 -8 -30 4 -53 13 -24 13 -31 2 -37 -24 -14 -6 -58
30 -76 32 -15 47 -38 48 -72 1 -13 65 -43 75 -34 2 2 -7 13 -20 24 -20 16 -22
21 -9 29 12 8 12 13 -4 30 -11 12 -25 21 -33 21 -8 0 -11 5 -8 10 3 6 28 10
54 10 55 0 93 28 72 54 -9 11 -4 19 26 42 37 28 37 28 13 35 -40 11 -50 10
-50 -6 0 -9 -9 -15 -24 -15 -14 0 -28 -5 -31 -10 -4 -6 -15 0 -27 15 -12 15
-30 25 -45 25 -15 0 -34 7 -44 16 -17 15 -19 15 -29 -8z m70 -78 c0 -5 -7 -10
-15 -10 -8 0 -15 5 -15 10 0 6 7 10 15 10 8 0 15 -4 15 -10z"/>
<path d="M5132 6190 c3 -19 0 -30 -8 -30 -7 0 -10 8 -7 20 4 16 0 20 -21 20
-27 0 -28 -6 -2 -39 6 -7 11 -21 11 -30 0 -9 10 -17 22 -19 16 -2 23 3 26 20
4 23 4 23 6 1 1 -20 3 -21 26 -11 18 8 24 17 19 27 -3 9 -11 28 -16 44 -7 20
-17 27 -35 27 -22 0 -25 -3 -21 -30z"/>
<path d="M5294 6168 c3 -7 9 -21 12 -30 4 -10 15 -18 25 -18 14 0 19 7 19 30
0 27 -3 30 -31 30 -21 0 -29 -4 -25 -12z"/>
<path d="M5040 6155 c0 -9 -9 -15 -24 -15 -32 0 -42 -17 -23 -38 7 -9 17 -25
20 -34 4 -11 17 -18 32 -18 25 0 25 0 10 30 -9 17 -20 28 -25 25 -6 -3 -7 0
-4 8 8 23 44 8 44 -18 0 -23 32 -60 43 -48 13 12 7 40 -13 58 -11 10 -20 29
-20 42 0 16 -6 23 -20 23 -11 0 -20 -7 -20 -15z"/>
<path d="M4882 6094 c4 -3 3 -15 -3 -26 -13 -25 4 -48 37 -48 17 0 22 4 18 15
-5 11 1 15 21 15 22 0 26 4 23 23 -3 19 -10 22 -53 25 -27 2 -46 0 -43 -4z"/>
<path d="M5181 6076 c-6 -7 -8 -22 -4 -32 6 -18 6 -18 -14 -1 -20 18 -21 17
-47 -15 -19 -24 -26 -28 -26 -15 0 11 -8 17 -25 17 -14 0 -25 -4 -25 -9 0 -5
-14 -8 -31 -7 -32 1 -35 -3 -41 -48 -4 -26 62 -42 95 -24 26 14 66 17 73 6 10
-16 43 -8 73 18 22 19 31 22 31 11 0 -16 20 -27 48 -27 9 0 29 12 44 27 45 43
33 101 -15 70 -32 -20 -70 -28 -87 -17 -10 7 -11 10 -2 10 6 0 12 11 12 25 0
20 -5 25 -24 25 -13 0 -29 -6 -35 -14z"/>
<path d="M8471 6071 c-14 -26 1 -53 25 -44 18 7 18 24 0 48 -13 18 -14 18 -25
-4z"/>
<path d="M6284 5923 c-3 -11 -21 -27 -40 -38 -28 -15 -34 -24 -34 -51 0 -18
-5 -45 -12 -59 -9 -20 -8 -31 2 -53 8 -15 16 -31 19 -36 2 -5 -10 -6 -29 -3
-30 6 -32 5 -26 -16 3 -12 6 -30 6 -39 0 -23 59 -52 76 -37 9 7 14 8 14 1 0
-5 -7 -15 -15 -22 -17 -14 -3 -40 21 -40 8 0 19 -11 24 -25 5 -13 23 -31 40
-40 16 -8 30 -20 30 -26 0 -8 4 -8 14 0 12 10 20 9 40 -4 31 -21 67 -14 96 17
20 21 20 22 0 55 -11 19 -15 35 -9 38 5 4 8 31 6 62 -3 49 -7 57 -30 70 -15 8
-32 11 -37 8 -6 -3 -10 3 -10 14 0 12 -6 21 -14 21 -8 0 -17 7 -20 16 -10 25
-7 74 4 74 19 0 10 23 -24 60 -18 20 -35 42 -37 47 -2 6 -14 14 -27 18 -18 5
-25 3 -28 -12z m0 -278 c-4 -8 -8 -15 -10 -15 -2 0 -4 7 -4 15 0 8 4 15 10 15
5 0 7 -7 4 -15z"/>
<path d="M5061 5917 c-21 -21 -13 -47 14 -47 14 0 25 4 25 9 0 5 3 16 6 24 6
18 -30 29 -45 14z"/>
<path d="M6130 5905 c-10 -13 -9 -19 5 -35 17 -19 19 -19 37 -4 26 25 23 54
-6 54 -13 0 -29 -7 -36 -15z"/>
<path d="M8727 5890 c-26 -22 -37 -26 -45 -18 -9 9 -20 4 -46 -21 -30 -29 -37
-31 -56 -21 -20 11 -21 10 -15 -12 20 -65 73 -102 105 -73 9 8 28 15 42 15 45
0 91 40 101 88 15 75 -26 95 -86 42z"/>
<path d="M5768 5879 c-23 -13 -23 -26 1 -39 15 -7 25 -5 43 9 12 11 21 21 18
24 -13 12 -47 15 -62 6z"/>
<path d="M8480 5773 c-19 -3 -43 -12 -52 -20 -14 -12 -21 -13 -32 -4 -11 9
-22 9 -51 -3 -37 -16 -38 -19 -18 -71 4 -12 -76 -14 -95 -2 -8 6 -14 -1 -18
-23 -4 -17 -11 -33 -15 -36 -12 -7 -11 -51 1 -59 6 -3 10 -14 10 -24 0 -10 9
-21 19 -24 11 -2 21 -15 23 -27 3 -25 14 -32 73 -50 62 -18 107 -10 115 20 12
44 59 110 74 104 20 -8 58 46 53 74 -2 12 0 25 4 28 14 8 10 41 -6 58 -8 8
-15 26 -15 40 0 27 1 27 -70 19z"/>
<path d="M5625 5636 c-19 -14 -19 -15 5 -35 14 -11 28 -20 31 -21 14 0 17 43
4 56 -17 17 -17 17 -40 0z"/>
<path d="M6567 5572 c-9 -10 -19 -44 -23 -75 -4 -32 -11 -60 -15 -63 -5 -3 -9
-22 -9 -42 0 -20 -4 -54 -9 -74 -7 -32 -6 -38 9 -43 11 -3 34 5 56 20 21 14
49 28 63 32 42 9 90 43 106 72 13 25 12 32 -7 69 -11 23 -24 39 -29 36 -6 -3
-19 6 -31 21 -11 14 -26 24 -33 21 -8 -3 -16 5 -19 20 -8 29 -36 32 -59 6z"/>
<path d="M8155 5500 c-3 -5 -1 -17 4 -27 5 -10 12 -26 15 -35 3 -10 15 -18 26
-18 23 0 28 37 10 71 -11 20 -45 26 -55 9z"/>
<path d="M8634 5429 c-33 -35 -42 -36 -46 -7 -3 26 -32 35 -53 18 -21 -17 -19
-43 6 -74 20 -25 22 -26 34 -10 11 16 13 16 26 -7 7 -13 12 -31 11 -40 -2 -9
4 -21 12 -28 12 -10 16 -8 21 8 4 12 24 26 53 36 26 8 58 24 71 34 22 17 23
19 7 49 -12 23 -24 32 -41 32 -13 0 -35 4 -48 9 -21 8 -29 5 -53 -20z"/>
<path d="M6764 5384 c3 -18 42 -43 68 -44 23 0 31 16 18 40 -14 26 -90 30 -86
4z"/>
<path d="M8325 5259 c-4 -6 -5 -11 -4 -13 49 -32 61 -37 74 -26 23 19 1 50
-35 50 -16 0 -32 -5 -35 -11z"/>
<path d="M5080 5212 c-25 -13 -53 -31 -62 -39 -22 -19 -123 -11 -148 12 -22
19 -44 19 -61 -1 -10 -12 -25 -15 -56 -11 -48 5 -102 -10 -132 -37 -14 -13
-28 -16 -46 -12 -18 5 -25 2 -25 -9 0 -18 -12 -19 -27 -4 -17 17 -33 1 -31
-29 3 -37 -8 -52 -39 -52 -15 0 -23 -3 -20 -6 11 -11 -71 -63 -119 -76 -52
-14 -66 -34 -39 -54 10 -8 13 -14 7 -14 -7 0 -12 -6 -12 -14 0 -10 -11 -12
-45 -8 -43 4 -45 3 -45 -21 0 -19 -4 -25 -14 -21 -8 3 -26 -2 -41 -12 -24 -16
-25 -19 -11 -29 14 -11 14 -14 -3 -29 -10 -9 -41 -19 -69 -23 -54 -6 -72 -22
-85 -72 -5 -19 1 -32 30 -58 44 -42 59 -94 32 -117 -11 -9 -19 -24 -19 -34 0
-20 69 -92 88 -92 7 0 12 -4 12 -9 0 -5 10 -11 23 -13 14 -2 23 -11 25 -25 3
-22 4 -22 38 -6 37 18 41 34 20 73 -10 16 -11 32 -5 48 5 14 5 30 0 40 -12 23
-2 109 15 123 8 6 14 17 14 25 0 7 9 15 19 19 12 3 21 17 23 33 2 22 9 28 33
30 21 2 36 13 53 37 12 19 28 35 36 35 7 0 19 7 26 15 9 11 16 13 24 5 16 -16
26 -12 26 10 0 11 7 20 15 20 8 0 15 4 15 10 0 5 18 22 40 36 22 15 40 33 40
41 0 9 6 13 15 9 8 -3 15 -1 15 4 0 6 16 10 36 10 46 0 75 16 67 36 -8 20 13
34 53 34 17 0 37 7 44 15 9 11 33 15 86 15 40 0 75 4 79 10 4 6 14 5 29 -1 18
-8 30 -7 54 5 17 9 42 16 54 16 14 0 39 15 61 38 28 29 37 46 37 72 -1 71 -54
92 -130 52z"/>
<path d="M6866 5223 c-8 -21 8 -38 28 -30 22 8 20 24 -3 36 -15 8 -20 7 -25
-6z"/>
<path d="M6086 5114 c-4 -9 -1 -23 6 -31 11 -13 15 -12 30 7 10 12 18 26 18
31 0 16 -48 9 -54 -7z"/>
<path d="M6395 5110 c-10 -11 -25 -20 -34 -20 -12 0 -11 -5 6 -22 22 -21 23
-21 43 -3 20 18 28 65 12 65 -5 0 -17 -9 -27 -20z"/>
<path d="M11727 5068 c-22 -12 -23 -90 -2 -108 8 -7 15 -21 15 -31 0 -11 13
-25 31 -35 l32 -16 -7 38 c-4 22 -8 63 -9 93 -2 44 -6 55 -23 61 -11 5 -28 4
-37 -2z"/>
<path d="M12564 4969 c-30 -11 -39 -28 -22 -45 12 -12 18 -10 42 15 29 31 20
45 -20 30z"/>
<path d="M5771 4886 c-17 -20 12 -40 46 -31 l28 7 -25 19 c-30 22 -34 23 -49
5z"/>
<path d="M12390 4870 c-7 -4 -9 -16 -5 -29 5 -18 14 -21 59 -21 40 0 57 5 71
20 10 11 15 23 12 27 -10 9 -122 12 -137 3z"/>
<path d="M5736 4777 c-21 -16 -14 -57 10 -57 20 0 29 26 18 51 -8 17 -11 18
-28 6z"/>
<path d="M7242 4747 c-24 -25 -29 -57 -10 -57 6 0 19 -7 28 -15 16 -14 20 -13
49 10 22 19 31 36 31 56 0 27 -3 29 -38 29 -27 0 -45 -7 -60 -23z"/>
<path d="M5888 4611 c-15 -15 -12 -35 8 -60 7 -8 34 22 34 39 0 29 -22 40 -42
21z"/>
<path d="M5090 4552 c0 -5 -12 -14 -26 -21 -15 -7 -24 -17 -21 -25 3 -7 1 -18
-4 -23 -18 -18 20 -46 54 -39 16 3 36 6 43 6 21 0 17 26 -11 70 -25 39 -35 48
-35 32z"/>
<path d="M5737 4533 c-13 -12 -7 -33 10 -33 9 0 25 -7 35 -17 17 -15 18 -15
18 14 0 19 -6 33 -16 37 -20 8 -39 8 -47 -1z"/>
<path d="M5340 4475 c-16 -19 6 -51 24 -36 7 6 22 8 34 4 25 -6 27 -1 12 28
-13 23 -52 25 -70 4z"/>
<path d="M3536 4365 c-49 -63 -5 -113 86 -99 53 9 64 37 36 93 -18 37 -24 41
-58 41 -31 0 -42 -6 -64 -35z"/>
<path d="M2384 4365 c-4 -8 -1 -22 6 -30 11 -14 15 -14 32 2 18 16 18 18 2 30
-23 17 -33 16 -40 -2z"/>
<path d="M5504 4325 c-6 -24 9 -55 27 -55 5 0 16 11 25 25 13 20 14 28 4 40
-20 24 -49 18 -56 -10z"/>
<path d="M84 4296 c-11 -9 -30 -12 -47 -9 -26 5 -27 4 -18 -18 36 -93 70 -152
118 -207 l55 -62 41 22 c56 31 69 67 39 108 -14 18 -22 44 -22 68 0 31 -5 43
-24 55 -21 14 -25 14 -39 0 -15 -15 -17 -15 -23 3 -10 26 -35 54 -49 54 -6 0
-20 -6 -31 -14z"/>
<path d="M12516 3535 c-15 -23 -15 -27 0 -50 11 -17 15 -37 11 -59 -7 -43 22
-77 48 -56 8 7 15 22 15 34 0 12 5 27 11 33 8 8 5 22 -10 49 -11 22 -22 47
-25 57 -8 25 -31 21 -50 -8z"/>
<path d="M12600 3276 c0 -13 7 -29 16 -36 12 -11 18 -10 32 4 16 16 16 18 -8
36 -33 26 -40 25 -40 -4z"/>
<path d="M12750 2725 c0 -42 2 -45 26 -45 20 0 25 4 20 16 -3 9 -6 29 -6 45 0
22 -5 29 -20 29 -17 0 -20 -7 -20 -45z"/>
<path d="M10640 2671 c0 -6 -6 -11 -14 -11 -21 0 -34 -21 -38 -60 -3 -30 0
-35 19 -35 12 0 25 -4 29 -8 12 -12 44 25 44 50 0 14 -9 36 -20 50 -11 14 -20
21 -20 14z"/>
<path d="M12738 2483 c-10 -18 -15 -47 -14 -78 2 -46 5 -50 27 -50 23 0 24 4
29 78 4 65 3 77 -10 77 -9 0 -23 -12 -32 -27z"/>
<path d="M12696 2251 c-9 -14 4 -41 19 -41 15 0 28 27 19 41 -3 5 -11 9 -19 9
-8 0 -16 -4 -19 -9z"/>
<path d="M12654 2169 c-12 -19 -5 -152 9 -161 22 -14 32 -2 34 43 2 24 6 57 9
73 5 22 2 32 -11 43 -23 16 -32 16 -41 2z"/>
<path d="M12617 1913 c-16 -4 -17 -11 -12 -46 13 -77 44 -75 48 3 2 44 -4 51
-36 43z"/>
<path d="M12724 1879 c-10 -17 23 -46 37 -32 7 7 9 19 6 27 -7 18 -33 21 -43
5z"/>
</g>
</svg>
