<svg id="Слой_1" data-name="Слой 1" xmlns="http://www.w3.org/2000/svg" viewBox="0 0 60 60"><defs><style>.cls-1{fill:none;stroke:#15173f;stroke-linecap:round;stroke-linejoin:round;stroke-width:1.15px;}</style></defs><title>plane</title><path class="cls-1" d="M37.72,25.95H50.2l3.9,3.17a1.73,1.73,0,0,1,.64,1.34h0A1.73,1.73,0,0,1,53,32.19H17.43A5.7,5.7,0,0,1,12.33,29l-4.1-8.19h4.54l4,5.1H28.93"/><polyline class="cls-1" points="11.56 27.5 8.23 35.59 12.48 35.59 13.9 33.32"/><line class="cls-1" x1="29.5" y1="28.22" x2="28.65" y2="24.81"/><polyline class="cls-1" points="34.32 19.14 30.63 11.77 25.81 11.77 27.46 19.14"/><line class="cls-1" x1="38.86" y1="28.22" x2="36.02" y2="22.55"/><line class="cls-1" x1="28.29" y1="37.57" x2="29.5" y2="32.19"/><polyline class="cls-1" points="34.46 40.98 30.63 48.63 25.81 48.63 26.95 43.53"/><line class="cls-1" x1="38.86" y1="32.19" x2="36.16" y2="37.57"/><path class="cls-1" d="M38,22.54H26.66a1.7,1.7,0,0,1-1.7-1.7h0a1.7,1.7,0,0,1,1.7-1.7H38Z"/><path class="cls-1" d="M26.66,37.57H38a0,0,0,0,1,0,0V41a0,0,0,0,1,0,0H26.66a1.7,1.7,0,0,1-1.7-1.7v0A1.7,1.7,0,0,1,26.66,37.57Z"/><line class="cls-1" x1="21.09" y1="39.09" x2="16.2" y2="39.17"/><line class="cls-1" x1="20.86" y1="20.87" x2="18.75" y2="20.87"/></svg>